<?xml version="1.0" standalone="no"?>
<!DOCTYPE svg PUBLIC "-//W3C//DTD SVG 20010904//EN"
 "http://www.w3.org/TR/2001/REC-SVG-20010904/DTD/svg10.dtd">
<svg version="1.0" xmlns="http://www.w3.org/2000/svg"
 width="814.000000pt" height="771.000000pt" viewBox="0 0 814.000000 771.000000"
 preserveAspectRatio="xMidYMid meet">

<g transform="translate(0.000000,771.000000) scale(0.100000,-0.100000)"
fill="#000000" stroke="none">
<path d="M78 7703 c7 -3 16 -2 19 1 4 3 -2 6 -13 5 -11 0 -14 -3 -6 -6z"/>
<path d="M148 7703 c7 -3 16 -2 19 1 4 3 -2 6 -13 5 -11 0 -14 -3 -6 -6z"/>
<path d="M1320 7700 c0 -5 6 -10 14 -10 8 0 17 -7 20 -16 3 -8 11 -12 17 -8 8
4 8 0 0 -15 -7 -11 -16 -21 -21 -21 -6 0 -10 -7 -10 -15 0 -8 5 -15 11 -15 6
0 10 -10 9 -22 -3 -35 1 -74 6 -61 8 17 48 2 88 -34 44 -41 112 -47 134 -12 8
12 9 18 3 14 -6 -3 -11 1 -11 9 0 8 -7 22 -16 31 -9 8 -13 22 -10 31 7 18 26
9 26 -12 0 -8 5 -14 10 -14 14 0 12 11 -5 34 -8 11 -20 16 -30 12 -13 -5 -15
-1 -11 17 l6 22 -11 -22 c-14 -27 -34 -30 -43 -7 -3 8 -2 12 4 9 6 -3 11 -1
11 4 3 26 4 30 12 37 11 12 8 24 -5 22 -7 -2 -12 4 -11 12 2 10 -5 16 -18 17
-20 2 -20 1 -4 -17 15 -16 16 -22 5 -35 -14 -17 -23 -13 -26 10 -1 8 3 15 8
15 6 0 3 10 -8 22 -10 12 -13 18 -6 14 6 -4 12 -2 12 3 0 7 -29 11 -75 11 -43
0 -75 -4 -75 -10z m115 -140 c3 -5 -1 -10 -9 -10 -9 0 -16 5 -16 10 0 6 4 10
9 10 6 0 13 -4 16 -10z m96 -13 c-10 -9 -11 -8 -5 6 3 10 9 15 12 12 3 -3 0
-11 -7 -18z m29 -36 c5 -11 9 -28 9 -38 -1 -17 -2 -17 -6 0 -2 9 -8 17 -13 17
-5 0 -6 7 -3 17 4 9 2 14 -3 10 -6 -3 -16 -2 -24 4 -12 7 -10 9 7 9 12 0 27
-9 33 -19z m-63 3 c-3 -3 -12 -4 -19 -1 -8 3 -5 6 6 6 11 1 17 -2 13 -5z"/>
<path d="M1663 7696 c0 -8 8 -11 19 -8 10 2 18 8 18 13 0 5 -8 9 -18 9 -10 0
-19 -6 -19 -14z"/>
<path d="M485 7690 c-3 -5 -1 -10 4 -10 6 0 11 5 11 10 0 6 -2 10 -4 10 -3 0
-8 -4 -11 -10z"/>
<path d="M1799 7673 c-13 -16 -12 -17 4 -4 16 13 21 21 13 21 -2 0 -10 -8 -17
-17z"/>
<path d="M2036 7661 c-17 -18 -14 -47 3 -37 11 7 7 -41 -3 -51 -5 -4 -6 -2 -2
5 5 8 0 12 -16 12 -17 0 -19 -3 -9 -9 7 -5 10 -14 7 -20 -12 -19 17 -40 39
-29 12 7 16 7 11 0 -3 -6 0 -13 6 -16 7 -3 3 -3 -9 -1 -12 3 -25 0 -29 -6 -4
-8 -3 -9 4 -5 8 5 10 2 6 -8 -7 -19 -25 -20 -44 -3 -12 10 -12 9 -1 -5 7 -9
10 -22 6 -28 -9 -15 88 -13 104 3 11 10 12 9 6 -2 -5 -9 -4 -12 3 -7 16 10 15
36 0 36 -9 0 -8 4 2 10 12 8 10 10 -10 11 -23 0 -23 1 -5 8 19 8 19 8 -2 15
-13 4 -23 12 -23 17 0 6 4 8 8 5 4 -2 14 -1 22 5 11 6 7 9 -14 9 -16 0 -26 3
-22 7 4 4 25 6 46 4 22 -1 40 1 40 6 0 4 -18 8 -40 8 -44 1 -71 17 -49 30 7 5
10 4 6 -2 -3 -5 0 -10 7 -10 11 0 12 4 3 18 -6 10 -16 15 -22 11 -5 -3 -4 2 4
11 8 10 11 20 7 24 -3 3 -6 0 -6 -8 0 -11 -2 -11 -8 -1 -7 9 -13 8 -26 -7z"/>
<path d="M1995 7660 c3 -5 10 -10 16 -10 5 0 9 5 9 10 0 6 -7 10 -16 10 -8 0
-12 -4 -9 -10z"/>
<path d="M105 7640 c-3 -5 -1 -10 4 -10 6 0 11 5 11 10 0 6 -2 10 -4 10 -3 0
-8 -4 -11 -10z"/>
<path d="M1935 7640 c-3 -5 1 -10 10 -10 9 0 13 5 10 10 -3 6 -8 10 -10 10 -2
0 -7 -4 -10 -10z"/>
<path d="M315 7630 c-3 -5 1 -10 10 -10 9 0 13 5 10 10 -3 6 -8 10 -10 10 -2
0 -7 -4 -10 -10z"/>
<path d="M1077 7633 c-4 -3 1 -12 11 -20 9 -8 12 -12 5 -8 -16 7 -63 -23 -63
-40 0 -8 9 -16 19 -20 23 -7 57 21 55 45 -3 42 -5 50 -12 50 -5 0 -12 -3 -15
-7z"/>
<path d="M1524 7629 c-3 -5 9 -9 25 -9 17 0 31 2 31 4 0 8 -51 13 -56 5z"/>
<path d="M998 7623 c7 -3 16 -2 19 1 4 3 -2 6 -13 5 -11 0 -14 -3 -6 -6z"/>
<path d="M1690 7613 c0 -8 -5 -11 -12 -8 -7 4 -4 -1 6 -9 11 -9 23 -21 26 -27
4 -5 6 5 6 24 -1 32 -26 51 -26 20z"/>
<path d="M1820 7610 c0 -12 27 -12 55 0 16 7 13 9 -17 9 -21 1 -38 -3 -38 -9z"/>
<path d="M1580 7598 c0 -4 16 -8 35 -8 19 0 35 4 35 9 0 5 -16 9 -35 8 -19 -1
-35 -5 -35 -9z"/>
<path d="M1730 7584 c0 -14 4 -23 9 -19 5 3 12 1 16 -4 3 -5 -2 -14 -11 -19
-11 -6 -18 -24 -19 -51 l-2 -41 57 0 c53 0 58 2 53 20 -3 11 -19 33 -35 49
-21 20 -28 35 -24 47 4 10 0 22 -11 30 -26 20 -33 17 -33 -12z"/>
<path d="M1628 7573 c6 -2 18 -2 25 0 6 3 1 5 -13 5 -14 0 -19 -2 -12 -5z"/>
<path d="M1855 7560 c3 -5 8 -10 11 -10 2 0 4 5 4 10 0 6 -5 10 -11 10 -5 0
-7 -4 -4 -10z"/>
<path d="M2135 7560 c3 -5 8 -10 11 -10 2 0 4 5 4 10 0 6 -5 10 -11 10 -5 0
-7 -4 -4 -10z"/>
<path d="M1902 7549 c2 -6 8 -10 13 -10 5 0 11 4 13 10 2 6 -4 11 -13 11 -9 0
-15 -5 -13 -11z"/>
<path d="M1303 7526 c-32 -15 -35 -32 -6 -31 17 0 28 8 34 23 9 24 5 25 -28 8z"/>
<path d="M2135 7530 c-3 -5 -1 -10 4 -10 6 0 11 5 11 10 0 6 -2 10 -4 10 -3 0
-8 -4 -11 -10z"/>
<path d="M130 7510 c-12 -23 2 -27 19 -6 8 9 8 16 2 20 -6 4 -15 -3 -21 -14z"/>
<path d="M1835 7520 c-3 -5 -1 -10 4 -10 6 0 11 5 11 10 0 6 -2 10 -4 10 -3 0
-8 -4 -11 -10z"/>
<path d="M335 7510 c-3 -6 1 -7 9 -4 18 7 21 14 7 14 -6 0 -13 -4 -16 -10z"/>
<path d="M1590 7512 c0 -5 7 -9 15 -9 8 0 12 4 9 9 -3 4 -9 8 -15 8 -5 0 -9
-4 -9 -8z"/>
<path d="M970 7465 c-11 -13 -10 -14 4 -9 9 3 16 10 16 15 0 13 -6 11 -20 -6z"/>
<path d="M1610 7460 c0 -6 7 -10 15 -10 8 0 15 2 15 4 0 2 -7 6 -15 10 -8 3
-15 1 -15 -4z"/>
<path d="M376 7425 c-3 -8 -1 -15 4 -15 6 0 10 7 10 15 0 8 -2 15 -4 15 -2 0
-6 -7 -10 -15z"/>
<path d="M31 7387 c-9 -11 -5 -14 21 -15 17 0 34 -5 37 -11 4 -5 12 -6 20 -2
10 6 9 11 -4 25 -20 19 -58 21 -74 3z"/>
<path d="M177 7389 c7 -7 15 -10 18 -7 3 3 -2 9 -12 12 -14 6 -15 5 -6 -5z"/>
<path d="M363 7337 c-20 -28 -21 -32 -7 -40 23 -13 36 5 32 41 l-3 31 -22 -32z"/>
<path d="M205 7340 c-3 -5 -2 -10 4 -10 5 0 13 5 16 10 3 6 2 10 -4 10 -5 0
-13 -4 -16 -10z"/>
<path d="M86 7314 c-3 -7 5 -9 20 -6 33 6 41 22 10 20 -14 -1 -27 -7 -30 -14z"/>
<path d="M97 7283 c-16 -15 -5 -22 32 -20 30 1 37 5 29 15 -11 13 -50 17 -61
5z"/>
<path d="M330 7041 c0 -9 48 -12 54 -3 2 4 -9 7 -25 8 -16 1 -29 -2 -29 -5z"/>
<path d="M20 6850 c8 -5 20 -10 25 -10 6 0 3 5 -5 10 -8 5 -19 10 -25 10 -5 0
-3 -5 5 -10z"/>
<path d="M48 6823 c7 -3 16 -2 19 1 4 3 -2 6 -13 5 -11 0 -14 -3 -6 -6z"/>
<path d="M0 6806 c0 -2 7 -6 15 -10 8 -3 15 -1 15 4 0 6 -7 10 -15 10 -8 0
-15 -2 -15 -4z"/>
<path d="M28 6763 c7 -3 16 -2 19 1 4 3 -2 6 -13 5 -11 0 -14 -3 -6 -6z"/>
<path d="M30 6710 c0 -5 5 -10 10 -10 6 0 10 5 10 10 0 6 -4 10 -10 10 -5 0
-10 -4 -10 -10z"/>
<path d="M30 6565 c0 -15 7 -28 16 -32 15 -6 15 -7 -1 -19 -19 -14 -15 -56 8
-78 15 -14 26 -14 55 2 24 14 31 37 7 28 -9 -3 -15 0 -15 10 0 9 -8 28 -19 42
-10 15 -22 37 -25 50 -10 30 -26 28 -26 -3z"/>
<path d="M116 6422 c-3 -6 0 -13 6 -15 9 -4 10 -6 1 -6 -8 -1 -10 -14 -7 -38
8 -52 24 -83 45 -83 10 0 24 -7 33 -15 8 -8 23 -15 33 -15 11 0 24 -5 30 -11
7 -7 12 -6 16 5 5 12 0 16 -17 16 -13 0 -29 7 -36 15 -7 8 -21 15 -31 15 -11
0 -19 4 -19 9 0 6 9 8 20 6 22 -4 28 10 8 18 -10 4 -9 8 2 16 12 9 11 11 -9
11 -16 0 -21 -4 -18 -14 7 -17 -19 -30 -29 -15 -3 6 1 18 9 27 8 9 12 24 9 32
-9 24 -39 52 -46 42z"/>
<path d="M10 6408 c0 -6 7 -8 15 -4 10 3 15 -1 15 -14 0 -10 4 -21 10 -25 5
-3 7 -12 3 -20 -3 -9 1 -15 8 -15 10 0 10 -3 1 -12 -18 -18 -15 -27 8 -21 20
5 29 43 10 43 -5 0 -10 5 -10 10 0 6 7 10 15 10 18 0 20 16 3 23 -10 4 -10 6
0 6 6 1 12 7 12 14 0 7 -17 13 -45 14 -25 1 -45 -3 -45 -9z"/>
<path d="M12 6338 c-18 -18 -14 -28 8 -28 11 0 20 6 20 14 0 21 -15 27 -28 14z"/>
<path d="M350 6324 c0 -12 6 -25 13 -27 9 -4 9 -6 -1 -6 -10 -1 -10 -4 2 -16
8 -8 17 -15 19 -15 9 0 -6 55 -17 62 -7 5 -4 8 7 8 9 0 17 4 17 9 0 6 -9 9
-20 8 -13 -1 -20 -8 -20 -23z"/>
<path d="M300 6329 c-11 -8 -12 -12 -2 -16 6 -2 12 -9 12 -14 0 -14 -26 -10
-40 6 -7 8 -17 15 -23 15 -7 0 0 -12 14 -26 20 -20 31 -24 53 -18 18 4 24 9
16 14 -7 4 -10 12 -7 17 10 16 -7 33 -23 22z"/>
<path d="M0 6291 c0 -5 5 -13 10 -16 5 -3 10 -2 10 4 0 5 -4 13 -10 16 -5 3
-10 2 -10 -4z"/>
<path d="M107 6245 c4 -12 3 -16 -4 -12 -6 4 -23 3 -37 -3 -14 -5 -26 -6 -26
-1 0 5 -9 7 -20 4 -22 -6 -27 -32 -7 -37 6 -2 27 -8 46 -14 18 -6 31 -8 27 -5
-10 10 15 33 35 33 14 0 19 -7 19 -26 0 -21 3 -25 18 -19 51 21 74 24 68 10
-4 -10 1 -15 15 -15 11 0 17 -4 14 -10 -3 -5 1 -10 10 -10 13 0 15 6 10 31 -5
20 -4 29 3 25 14 -8 43 4 36 15 -3 5 -16 6 -29 3 -16 -4 -37 1 -59 14 -19 11
-55 24 -81 27 -41 7 -45 6 -38 -10z"/>
<path d="M330 6251 c0 -5 7 -11 15 -15 8 -3 15 -1 15 3 0 5 -7 11 -15 15 -8 3
-15 1 -15 -3z"/>
<path d="M370 6198 c0 -7 5 -20 10 -28 8 -12 10 -9 10 13 0 15 -4 27 -10 27
-5 0 -10 -6 -10 -12z"/>
<path d="M160 6149 c0 -5 9 -9 20 -9 11 0 20 2 20 4 0 2 -9 6 -20 9 -11 3 -20
1 -20 -4z"/>
<path d="M14 6141 c3 -5 15 -7 26 -4 12 3 22 -1 26 -11 9 -22 20 -20 20 4 0
17 -7 20 -39 20 -21 0 -36 -4 -33 -9z"/>
<path d="M296 6135 c4 -8 15 -15 25 -15 10 0 19 -5 19 -11 0 -7 -9 -9 -21 -6
-17 5 -20 2 -16 -14 4 -14 0 -19 -14 -19 -12 0 -16 5 -13 15 4 11 0 15 -16 15
-15 0 -20 -5 -17 -14 4 -10 1 -13 -9 -9 -8 3 -12 13 -9 22 4 13 -5 16 -58 19
-58 3 -63 1 -63 -17 0 -15 7 -21 23 -21 12 0 25 -4 28 -10 3 -5 12 -10 18 -10
7 0 6 4 -3 10 -18 11 -6 25 16 16 9 -3 14 -12 11 -19 -3 -7 3 -14 14 -15 42
-4 48 -6 44 -13 -3 -4 -15 -5 -28 -3 -12 2 -16 2 -9 -2 17 -8 15 -24 -3 -24
-8 0 -15 6 -15 14 0 9 -12 14 -35 14 -27 0 -35 -4 -35 -18 0 -22 24 -32 39
-17 17 17 22 4 8 -23 -13 -27 -11 -70 4 -70 5 0 4 -9 -3 -20 -8 -12 -24 -20
-42 -20 -26 0 -28 -2 -23 -29 7 -34 -12 -58 -31 -39 -9 9 -12 8 -12 -6 0 -9
-6 -24 -14 -32 -13 -12 -15 -12 -19 4 -4 14 -6 14 -12 -5 -4 -13 -11 -23 -14
-23 -4 0 -8 -22 -10 -49 -2 -41 2 -52 21 -65 l22 -16 -22 0 c-21 0 -22 -4 -22
-75 0 -65 2 -75 18 -75 14 0 15 2 2 10 -12 8 -11 10 7 10 12 0 25 5 28 10 3 6
-1 10 -10 10 -14 0 -15 7 -9 46 7 48 32 84 59 84 12 0 11 4 -5 20 -11 11 -20
25 -20 30 0 16 19 11 40 -10 12 -12 26 -18 32 -14 6 4 35 8 64 8 43 1 54 -2
57 -16 3 -10 14 -18 26 -18 23 0 28 -15 9 -23 -10 -4 -10 -6 0 -6 6 -1 12 -8
12 -16 0 -8 5 -15 10 -15 6 0 10 -9 10 -20 0 -23 25 -27 45 -7 17 18 22 317 5
317 -6 0 -8 5 -5 10 3 6 2 10 -4 10 -6 0 -8 7 -5 15 4 8 10 13 14 10 4 -3 8
27 9 65 1 54 -2 70 -13 70 -8 0 -17 -6 -19 -12 -4 -10 -6 -10 -6 0 -1 6 -12
12 -26 12 -31 0 -33 15 -2 17 48 4 67 13 67 34 0 16 -4 19 -20 14 -28 -9 -26
13 3 25 18 9 17 9 -10 4 -17 -3 -41 0 -52 6 -17 9 -20 8 -15 -5z m-13 -147 c3
-10 7 -10 20 1 16 12 21 9 18 -11 -2 -15 17 -8 23 8 10 26 30 10 32 -24 1 -17
-3 -29 -7 -26 -5 3 -9 1 -9 -4 0 -5 -6 -9 -12 -9 -7 0 -28 -3 -46 -8 -31 -6
-33 -5 -27 14 4 13 2 21 -5 21 -7 0 -10 7 -7 14 4 11 1 13 -11 9 -15 -6 -15
-5 -3 10 16 20 28 22 34 5z m77 -122 c8 -24 3 -46 -12 -46 -6 0 -5 6 2 15 10
13 9 15 -9 15 -13 0 -21 -6 -21 -17 0 -10 -4 -14 -8 -8 -14 20 -30 14 -28 -10
3 -22 2 -23 -19 -9 -12 8 -30 12 -39 8 -21 -8 -21 5 1 21 14 11 15 16 5 28
-15 18 -2 30 22 21 13 -5 14 -9 5 -20 -9 -11 -6 -14 20 -14 20 0 31 5 30 13
-3 28 2 35 22 30 11 -3 24 -15 29 -27z m-160 -27 c0 -14 -17 -10 -23 5 -4 10
-1 13 9 9 7 -3 14 -9 14 -14z m115 -71 c-4 -18 -9 -35 -11 -37 -8 -8 -55 -3
-69 9 -19 16 -19 30 1 30 8 0 12 5 9 10 -3 6 -1 10 4 10 6 0 11 -4 11 -10 0
-15 17 -12 32 5 21 24 30 17 23 -17z m-168 16 c-3 -3 -12 -4 -19 -1 -8 3 -5 6
6 6 11 1 17 -2 13 -5z m-19 -45 c-2 -6 -8 -10 -13 -10 -5 0 -11 4 -13 10 -2 6
4 11 13 11 9 0 15 -5 13 -11z m202 -29 c0 -5 -4 -10 -10 -10 -5 0 -10 5 -10
10 0 6 5 10 10 10 6 0 10 -4 10 -10z m-70 -21 c0 -5 -4 -9 -10 -9 -5 0 -13 -1
-17 -2 -3 -2 -7 4 -8 13 -2 12 3 15 16 12 10 -3 19 -9 19 -14z m-230 -49 c0
-5 -2 -10 -4 -10 -3 0 -8 5 -11 10 -3 6 -1 10 4 10 6 0 11 -4 11 -10z m0 -60
c0 -5 -4 -10 -10 -10 -5 0 -10 5 -10 10 0 6 5 10 10 10 6 0 10 -4 10 -10z"/>
<path d="M7880 5944 c0 -5 11 -14 25 -21 20 -9 25 -8 25 3 0 8 -4 14 -9 14 -5
0 -16 3 -25 6 -9 3 -16 2 -16 -2z"/>
<path d="M8100 5940 c-15 -9 -4 -30 16 -30 8 0 12 -4 9 -10 -3 -5 -2 -10 4
-10 13 0 10 34 -5 47 -6 6 -17 7 -24 3z"/>
<path d="M7887 5865 c-4 -8 -2 -17 2 -20 5 -2 11 4 14 15 6 23 -8 27 -16 5z"/>
<path d="M8080 5870 c0 -5 12 -16 26 -23 19 -10 23 -16 14 -22 -7 -4 -15 -4
-19 1 -3 5 -19 16 -36 24 -45 21 -52 23 -33 7 13 -10 15 -16 6 -25 -9 -9 -6
-12 11 -12 16 0 21 -4 17 -15 -3 -8 -1 -15 4 -15 6 0 10 5 10 10 0 6 8 10 19
10 30 0 45 24 29 49 -13 21 -48 29 -48 11z"/>
<path d="M7938 5849 c-9 -6 -8 -10 5 -15 12 -4 15 -10 7 -19 -5 -6 -7 -15 -3
-18 3 -4 1 -7 -5 -7 -7 0 -12 -4 -12 -8 0 -5 7 -9 14 -9 8 0 14 5 13 11 -1 6
7 10 18 8 28 -5 65 -30 65 -45 0 -8 -3 -9 -8 -1 -4 6 -16 14 -27 18 -11 4 -16
4 -12 0 4 -4 2 -13 -4 -20 -8 -9 -5 -15 10 -24 12 -6 21 -15 21 -21 0 -6 -4
-7 -10 -4 -5 3 -10 1 -10 -4 0 -6 -3 -10 -7 -10 -26 4 -41 -4 -47 -23 -3 -13
-1 -24 4 -26 6 -2 10 -8 10 -13 0 -6 -4 -7 -10 -4 -5 3 -10 1 -10 -4 0 -6 -5
-11 -11 -11 -5 0 -7 5 -4 10 11 17 -7 11 -20 -7 -9 -12 -10 -23 -3 -36 11 -21
4 -47 -13 -47 -6 0 -9 6 -6 13 4 10 -2 13 -20 9 -16 -3 -24 -1 -20 5 4 6 0 16
-7 22 -11 9 -19 9 -35 -1 -29 -18 -26 -29 7 -23 15 3 21 2 14 -1 -6 -3 -10
-10 -7 -15 3 -5 1 -17 -4 -28 -8 -14 -7 -20 4 -25 8 -3 14 -2 13 2 -3 16 15
42 31 42 12 0 13 -2 3 -9 -8 -4 -19 -19 -26 -32 -10 -20 -19 -24 -52 -24 -23
1 -41 -4 -40 -10 1 -5 -2 -10 -5 -10 -4 0 -16 -8 -27 -18 -13 -12 -22 -15 -27
-8 -9 16 -41 13 -55 -4 -9 -10 -9 -15 -1 -15 19 0 12 -16 -14 -30 -14 -7 -23
-15 -21 -18 3 -2 18 5 34 17 l30 21 16 -23 c13 -16 16 -18 12 -4 -3 10 -2 16
3 12 5 -3 11 1 14 7 2 7 8 10 12 6 4 -4 0 -14 -9 -23 -9 -9 -16 -26 -16 -37 0
-25 -10 -18 -14 8 -4 27 -21 27 -36 0 -11 -21 -10 -27 2 -40 9 -8 18 -12 22
-9 3 4 6 1 6 -5 0 -18 40 -14 47 5 6 15 7 15 14 -3 7 -17 8 -17 8 -1 1 9 6 17
12 17 5 0 8 4 4 9 -3 5 -1 12 5 16 5 3 10 -3 10 -14 0 -12 4 -21 9 -21 5 0 11
-11 14 -25 2 -14 2 -23 -1 -20 -3 2 -11 0 -19 -6 -9 -9 -13 -8 -13 0 0 8 -6 9
-17 2 -28 -15 -37 -14 -45 6 -7 16 -8 16 -5 -2 1 -11 8 -21 15 -21 37 -4 37
-4 24 -12 -17 -11 -58 -7 -55 5 1 6 -9 21 -22 33 -14 13 -25 18 -25 12 0 -7
-3 -11 -7 -11 -30 5 -33 -3 -32 -88 1 -49 6 -96 11 -105 5 -12 5 -18 -2 -18
-5 0 -10 -9 -10 -20 0 -11 7 -20 15 -20 8 0 15 -5 15 -11 0 -6 -7 -9 -15 -5
-12 4 -13 2 -3 -14 10 -15 10 -22 0 -32 -7 -7 -12 -41 -12 -85 0 -58 3 -74 18
-82 16 -10 16 -10 -2 -11 -15 0 -7 -12 33 -54 28 -30 51 -63 51 -73 0 -11 4
-23 9 -28 5 -6 12 -31 16 -57 7 -43 5 -48 -12 -48 -11 0 -23 -3 -27 -7 -4 -5
-13 -8 -19 -8 -7 0 -11 -8 -9 -18 2 -9 -2 -17 -8 -17 -5 0 -9 6 -7 13 1 6 -5
12 -13 12 -8 0 -18 5 -22 10 -4 6 -8 -41 -8 -103 0 -99 2 -115 20 -134 15 -16
17 -25 9 -35 -6 -7 -15 -10 -20 -7 -5 3 -9 -17 -8 -45 1 -28 6 -48 10 -45 10
6 22 -33 13 -47 -4 -8 -9 -7 -15 2 -5 9 -8 -16 -8 -61 0 -41 3 -69 6 -62 2 6
9 10 14 6 14 -8 11 -24 -6 -24 -13 0 -15 -56 -15 -435 0 -283 4 -434 10 -430
12 7 14 -8 3 -19 -5 -4 -9 -32 -9 -62 -1 -40 2 -54 12 -54 19 0 18 -15 -3 -35
-13 -14 -14 -18 -3 -25 7 -4 19 -6 27 -3 8 3 13 -2 13 -15 0 -19 -24 -37 -39
-28 -3 2 -7 -23 -7 -57 -1 -34 1 -56 3 -49 3 6 11 12 19 12 14 0 15 -44 0 -68
-4 -7 -2 -12 3 -12 6 0 11 -9 11 -19 0 -14 -5 -18 -20 -14 -11 3 -20 0 -20 -6
0 -6 9 -11 19 -11 10 0 21 -6 24 -14 4 -9 14 -12 29 -9 13 3 19 2 15 -3 -4 -4
-25 -8 -45 -9 -37 0 -37 0 -40 -46 -3 -40 0 -47 19 -52 12 -3 18 -10 14 -17
-5 -8 -10 -8 -20 0 -12 10 -14 4 -12 -32 0 -24 7 -49 15 -57 12 -13 12 -16 -2
-26 -22 -17 -24 -155 -2 -155 19 0 33 23 18 28 -12 4 -17 32 -6 32 11 0 38
-33 41 -51 2 -10 4 -24 5 -31 2 -7 -4 -11 -12 -9 -61 16 -58 19 -59 -62 l-1
-75 30 15 c33 16 40 28 11 18 -12 -3 -21 0 -25 10 -9 24 59 20 84 -5 l20 -20
22 20 c25 23 38 26 38 8 0 -6 -3 -8 -7 -5 -7 8 -33 -11 -33 -25 0 -5 8 -8 18
-7 41 4 46 -1 24 -22 -23 -21 -78 -31 -76 -14 1 6 -7 18 -17 27 -18 17 -19 17
-20 0 -1 -9 -1 -23 0 -30 2 -13 -17 -16 -43 -6 -9 3 -13 11 -9 18 4 8 2 8 -7
-1 -14 -13 -5 -33 15 -33 8 0 17 -11 21 -25 5 -21 8 -23 21 -10 13 14 28 19
46 16 4 0 7 3 7 9 0 5 16 12 35 16 19 3 38 10 41 15 8 13 24 1 24 -17 0 -9 -8
-14 -17 -13 -37 3 -53 -2 -63 -21 -9 -17 -8 -20 7 -17 10 1 24 6 31 11 22 13
29 -4 8 -20 -11 -7 -16 -17 -12 -21 4 -4 11 -1 15 6 12 19 68 24 75 6 3 -10
16 -13 43 -9 21 2 32 2 26 -2 -20 -9 -15 -22 10 -27 16 -3 12 -5 -13 -7 -19
-1 -41 -2 -49 -1 -7 2 -10 -2 -7 -8 4 -5 2 -12 -4 -16 -12 -7 -14 -26 -2 -24
18 3 35 -2 29 -8 -4 -3 0 -15 10 -25 14 -16 14 -18 1 -18 -9 0 -18 -6 -21 -14
-8 -20 29 -12 55 11 15 14 21 14 27 4 5 -7 12 -13 17 -13 5 1 8 -6 6 -14 -2
-8 3 -14 10 -14 7 0 24 -9 38 -20 l25 -21 -30 7 c-16 4 -38 11 -48 16 -15 8
-20 5 -24 -11 -3 -14 -13 -21 -28 -21 -13 0 -31 -3 -40 -6 -13 -5 -14 -8 -3
-15 10 -7 10 -9 1 -9 -7 0 -13 -4 -13 -10 0 -5 10 -10 23 -10 29 0 37 -7 30
-26 -4 -12 -11 -11 -39 5 l-34 20 1 -27 c1 -17 3 -21 6 -9 2 9 8 15 13 12 5
-3 7 -12 3 -20 -8 -22 30 -19 57 5 24 21 50 27 50 11 0 -5 -8 -12 -17 -14 -11
-3 -7 -5 10 -6 24 -1 26 -3 17 -20 -8 -16 -5 -23 16 -40 14 -11 31 -18 37 -15
15 5 39 -44 25 -52 -5 -3 -14 -2 -20 4 -7 7 -19 7 -36 1 -17 -7 -29 -6 -36 1
-7 7 -5 10 7 10 9 0 17 7 17 16 0 11 -5 14 -16 10 -8 -3 -24 -1 -35 4 -15 8
-19 7 -19 -5 0 -8 5 -15 11 -15 8 0 7 -5 -1 -15 -11 -13 -10 -14 4 -9 12 5 16
0 16 -19 0 -24 3 -26 48 -24 60 3 73 -17 14 -21 -33 -2 -42 -7 -38 -18 9 -24
-10 -16 -24 11 -14 27 -36 35 -26 10 3 -8 0 -15 -7 -15 -7 -1 0 -7 15 -16 27
-14 53 -14 91 1 12 5 17 2 17 -9 0 -9 -7 -16 -15 -16 -19 0 -20 -16 -1 -23 8
-3 17 0 19 7 3 7 15 16 26 19 16 4 21 0 21 -14 0 -10 7 -19 15 -19 9 0 12 -6
9 -15 -4 -8 -1 -15 4 -15 17 0 13 230 -4 248 -15 14 -9 36 7 27 5 -4 9 21 9
59 0 42 -4 66 -12 69 -10 4 -10 6 0 6 7 1 12 15 12 35 0 19 -6 37 -12 40 -10
5 -10 7 0 12 6 3 12 21 12 39 0 25 -5 34 -22 40 l-23 8 22 4 c21 4 22 9 21
106 0 66 -4 105 -11 109 -9 6 -9 8 1 8 8 0 12 16 12 46 0 29 -4 43 -11 39 -6
-4 -8 -9 -5 -12 3 -3 -14 -21 -36 -40 -38 -32 -46 -34 -97 -31 -52 3 -56 1
-59 -20 -5 -34 -28 -21 -24 14 2 22 -5 36 -29 58 -27 26 -34 28 -59 19 -38
-14 -49 9 -16 31 21 13 23 19 16 57 -5 24 -4 54 1 67 5 13 7 28 3 33 -3 5 -1
9 4 9 5 0 17 19 27 43 13 31 27 47 56 61 21 10 40 25 43 32 8 21 44 17 51 -6
3 -11 11 -20 16 -20 6 0 27 -14 48 -30 50 -41 71 -33 69 26 0 24 -3 42 -7 40
-4 -3 -7 4 -7 14 0 10 4 16 8 14 4 -3 8 -1 8 5 0 5 -8 12 -17 14 -17 4 -17 5
0 6 19 1 24 31 5 31 -9 0 -10 2 -2 8 8 4 12 51 12 134 1 107 -1 126 -14 121
-7 -3 -14 -11 -14 -18 0 -14 -12 -13 -107 1 -18 3 -33 9 -33 15 0 6 -4 8 -9 4
-5 -3 -12 -1 -16 5 -10 16 -25 12 -19 -5 4 -8 1 -15 -5 -15 -6 0 -11 3 -12 8
-6 58 -20 75 -56 67 -13 -3 -23 -1 -23 5 0 5 9 10 21 10 16 0 19 4 14 18 -5 9
-8 41 -9 70 0 28 -4 52 -8 52 -4 0 -8 5 -8 11 0 5 4 8 9 4 16 -10 23 15 9 32
-10 13 -10 15 0 9 8 -5 27 5 52 28 22 20 46 36 54 36 9 0 12 7 9 20 -6 24 15
24 33 1 13 -17 44 -23 44 -9 0 5 7 2 16 -6 23 -24 53 -38 64 -31 6 3 10 34 10
69 0 48 -4 67 -20 84 -22 23 -26 42 -10 42 6 0 10 -7 10 -15 0 -8 5 -15 10
-15 6 0 10 29 10 66 0 58 -2 65 -17 60 -20 -6 -51 9 -41 19 5 6 28 12 51 14 4
1 7 19 7 42 0 30 -6 46 -22 60 l-23 18 23 1 c12 0 22 5 22 10 0 6 -5 10 -11
10 -8 0 -8 4 -1 13 7 8 11 88 11 225 l0 212 -27 18 c-15 9 -33 22 -40 29 -7 7
-17 13 -21 13 -9 0 -31 83 -31 119 0 37 20 94 36 104 7 4 10 14 7 23 -4 10 -1
15 8 14 63 -9 67 3 68 245 1 148 -2 215 -9 210 -5 -3 -10 -13 -10 -21 0 -19
-26 -18 -34 1 -5 14 -9 14 -36 0 -16 -8 -32 -15 -35 -15 -21 1 -25 -2 -25 -15
0 -17 -4 -18 -28 -6 -22 12 -58 26 -79 30 -5 1 0 6 10 12 13 8 15 14 7 29 -6
11 -16 17 -25 14 -12 -5 -14 1 -10 36 3 24 8 48 12 54 4 6 -3 2 -16 -8 -28
-25 -49 -9 -31 24 11 21 11 21 -14 5 -14 -10 -23 -22 -20 -29 4 -6 -5 0 -18
14 l-25 25 21 21 c12 12 28 24 36 27 8 3 1 6 -17 6 -37 1 -47 19 -25 44 14 15
13 17 -1 17 -21 0 -22 16 -2 24 8 3 15 1 15 -4 0 -6 5 -9 11 -8 6 2 14 -3 16
-9 3 -7 0 -13 -5 -13 -6 0 -8 -9 -5 -20 6 -24 23 -16 23 11 0 10 4 19 10 19 5
0 10 -10 10 -22 0 -40 3 -57 11 -53 4 3 9 -2 13 -10 3 -8 1 -17 -4 -20 -15 -9
-12 -25 4 -25 7 0 16 8 19 19 2 10 18 24 36 32 17 8 31 17 31 20 0 10 58 29
85 29 28 0 77 -24 68 -33 -3 -4 -1 -7 5 -7 7 0 12 -9 12 -19 0 -11 5 -23 10
-26 6 -4 10 25 10 79 0 58 -4 86 -12 90 -10 5 -10 7 0 12 7 4 12 27 12 64 l0
58 -37 -8 c-20 -5 -41 -7 -45 -4 -8 5 -11 -7 -9 -36 1 -22 -26 -53 -39 -45 -7
4 -8 11 -2 18 16 21 10 49 -9 44 -11 -3 -17 0 -16 7 1 6 -6 10 -15 10 -11 -1
-14 4 -11 13 4 10 15 13 34 9 16 -3 29 -2 29 2 0 13 -55 69 -74 76 -15 5 -16
9 -6 21 11 13 8 15 -14 13 -21 -2 -26 -7 -24 -23 2 -11 10 -19 17 -17 12 3 12
0 1 -12 -7 -9 -21 -16 -31 -16 -23 0 -24 -8 -3 -31 10 -11 13 -25 9 -38 -5
-17 -10 -19 -26 -11 -10 6 -27 10 -37 8 -11 -2 -17 3 -16 14 1 10 -2 15 -7 13
-12 -8 -7 39 6 47 5 4 19 8 30 8 18 0 21 6 20 48 0 40 3 49 24 60 18 9 27 10
38 0 8 -6 13 -7 12 -2 -1 5 0 16 4 24 12 33 15 60 6 66 -5 3 -9 11 -9 17 0 7
4 6 10 -3 7 -11 10 -12 10 -2 0 8 9 25 20 39 17 21 18 29 8 42 -12 14 -11 14
4 3 14 -12 21 -11 40 2 20 14 18 21 -4 17 -13 -2 -9 18 5 26 8 4 19 17 25 28
6 11 12 14 12 7 0 -24 20 -1 20 24 0 13 4 24 8 24 4 0 8 9 8 19 0 15 -3 17
-13 9 -14 -11 -47 -3 -39 10 3 5 -7 8 -22 8 -33 -2 -52 11 -52 34 0 18 -20 22
-42 9z m-21 -354 c-13 -26 -33 -39 -47 -30 -14 9 0 34 16 28 7 -3 17 2 20 11
3 9 10 16 14 16 5 0 3 -11 -3 -25z m-106 -86 c10 0 11 -2 1 -6 -6 -2 -9 -9 -6
-15 3 -5 -3 -12 -15 -15 -12 -3 -21 -9 -21 -14 0 -13 28 -11 32 2 2 6 11 7 23
3 16 -7 14 -9 -16 -20 -57 -21 -72 -18 -66 12 4 20 0 28 -15 32 -10 2 -17 9
-15 15 4 12 37 19 37 8 0 -4 9 -7 21 -8 20 -2 20 -1 5 16 -9 10 -16 21 -16 26
0 4 8 -2 19 -13 10 -12 25 -22 32 -23z m39 32 c0 -5 -7 -11 -14 -14 -10 -4
-13 -1 -9 9 6 15 23 19 23 5z m70 -136 c0 -9 -6 -12 -15 -9 -8 4 -15 10 -15
15 0 5 7 9 15 9 8 0 15 -7 15 -15z m-60 -65 c13 -9 13 -10 0 -10 -19 -1 -57
-50 -38 -50 11 0 11 -2 0 -9 -10 -6 -10 -10 3 -21 12 -10 13 -16 4 -26 -16
-19 -33 -18 -25 2 3 8 2 12 -4 9 -6 -3 -10 -1 -10 5 0 6 -5 8 -10 5 -6 -4 -17
-2 -24 4 -10 8 -16 5 -24 -14 -6 -14 -16 -25 -22 -25 -6 0 -9 -4 -6 -8 3 -5
-1 -19 -8 -33 -7 -13 -11 -30 -8 -37 2 -6 -1 -12 -7 -12 -6 0 -11 5 -11 11 0
5 -4 8 -9 4 -5 -3 -13 0 -17 6 -5 8 -3 9 5 4 9 -5 12 0 10 16 -2 13 0 30 5 37
5 8 3 12 -6 10 -7 -2 -13 4 -13 12 0 16 26 21 36 7 12 -17 28 3 23 27 -4 22 0
25 24 24 17 -1 39 9 56 25 59 54 54 51 76 37z m65 -20 c3 -5 -4 -19 -16 -31
-17 -17 -18 -21 -6 -16 15 6 16 3 7 -13 -7 -12 -7 -20 -1 -20 5 0 9 -8 9 -17
0 -10 3 -26 7 -35 5 -13 3 -18 -9 -18 -9 0 -16 7 -16 15 0 17 -16 20 -25 5
-12 -20 -26 -10 -15 10 6 11 15 18 20 15 5 -3 12 0 15 6 4 6 -2 13 -13 16 -16
4 -19 10 -13 27 5 11 6 27 4 34 -3 6 2 12 11 12 9 0 16 5 16 10 0 13 17 13 25
0z m-65 -35 c0 -8 -4 -15 -10 -15 -5 0 -10 7 -10 15 0 8 5 15 10 15 6 0 10 -7
10 -15z m110 5 c0 -5 -7 -7 -15 -4 -8 4 -15 8 -15 10 0 2 7 4 15 4 8 0 15 -4
15 -10z m70 -41 c0 -4 -9 -13 -19 -18 -24 -13 -54 15 -32 29 15 9 51 2 51 -11z
m-80 -33 c-7 -7 -14 -6 -21 1 -9 9 -7 12 9 10 14 -1 18 -5 12 -11z m60 -12 c0
-8 -19 -13 -24 -6 -3 5 1 9 9 9 8 0 15 -2 15 -3z m-25 -24 c3 -5 1 -10 -4 -10
-6 0 -11 5 -11 10 0 6 2 10 4 10 3 0 8 -4 11 -10z m-252 -15 c-3 -9 -8 -14
-10 -11 -3 3 -2 9 2 15 9 16 15 13 8 -4z m153 -9 c9 -9 10 -17 4 -21 -5 -3
-10 -1 -10 4 0 6 -9 11 -20 11 -11 0 -20 5 -20 10 0 15 29 12 46 -4z m-128
-48 c-3 -7 -12 -14 -21 -16 -12 -2 -15 1 -11 12 7 19 38 22 32 4z m-68 -24 c0
-14 -3 -15 -17 -3 -10 7 -20 15 -22 16 -2 2 5 3 17 3 14 0 22 -6 22 -16z m-75
-82 c-3 -3 -11 0 -18 7 -9 10 -8 11 6 5 10 -3 15 -9 12 -12z m173 -1 c0 -9 3
-24 7 -33 4 -10 3 -18 -3 -18 -5 0 -12 -6 -15 -13 -3 -9 5 -13 26 -12 41 0 44
-17 7 -34 -34 -15 -60 -3 -60 28 0 9 -5 22 -12 29 -9 9 -8 12 5 12 20 0 20 1
8 33 -8 22 -7 25 14 25 15 0 23 -6 23 -17z m-75 -26 c-6 -16 -43 -21 -43 -5 0
11 32 30 42 24 4 -3 5 -11 1 -19z m-103 5 c0 -5 -4 -10 -10 -10 -5 0 -10 5
-10 10 0 6 5 10 10 10 6 0 10 -4 10 -10z m280 -130 c0 -5 -4 -10 -10 -10 -5 0
-10 5 -10 10 0 6 5 10 10 10 6 0 10 -4 10 -10z m-50 -10 c0 -5 -5 -10 -11 -10
-5 0 -7 5 -4 10 3 6 8 10 11 10 2 0 4 -4 4 -10z m57 -30 c2 -22 -12 -27 -23
-9 -5 9 5 22 21 29 1 0 1 -9 2 -20z m-57 -7 c0 -7 -10 -17 -22 -22 l-22 -8 21
-12 c27 -14 36 -14 28 -1 -3 6 0 10 8 10 8 0 17 -6 20 -13 3 -9 -6 -14 -31
-15 -20 -2 -42 -8 -50 -14 -10 -9 -12 -8 -10 3 2 8 8 17 13 21 6 5 5 8 -2 8
-7 0 -10 6 -7 14 3 8 1 17 -5 21 -22 13 -10 24 24 23 22 -1 35 -6 35 -15z
m211 -17 c5 3 9 -2 9 -11 0 -16 -26 -32 -36 -22 -3 3 -2 16 2 29 4 13 9 17 11
10 3 -6 9 -10 14 -6z m65 -15 c-4 -6 -13 -11 -19 -10 -9 0 -9 2 0 5 7 3 9 13
6 22 -5 13 -3 14 7 5 7 -6 9 -16 6 -22z m-149 3 c-3 -3 -12 -4 -19 -1 -8 3 -5
6 6 6 11 1 17 -2 13 -5z m-202 -55 c10 -15 -1 -23 -20 -15 -9 3 -13 10 -10 16
8 13 22 13 30 -1z m195 1 c-19 -13 -30 -13 -30 0 0 6 10 10 23 10 18 0 19 -2
7 -10z m160 -10 c0 -5 -4 -10 -10 -10 -5 0 -10 5 -10 10 0 6 5 10 10 10 6 0
10 -4 10 -10z m-200 -4 c0 -3 -4 -8 -10 -11 -5 -3 -10 -1 -10 4 0 6 5 11 10
11 6 0 10 -2 10 -4z m-90 -15 c0 -14 -18 -23 -30 -16 -6 4 -8 11 -5 16 8 12
35 12 35 0z m70 -20 c0 -12 -20 -25 -27 -18 -7 7 6 27 18 27 5 0 9 -4 9 -9z
m150 -26 c0 -8 -7 -15 -15 -15 -8 0 -15 7 -15 15 0 8 7 15 15 15 8 0 15 -7 15
-15z m-205 -15 c3 -6 -1 -7 -9 -4 -18 7 -21 14 -7 14 6 0 13 -4 16 -10z m-85
-10 c0 -5 -4 -10 -10 -10 -5 0 -10 5 -10 10 0 6 5 10 10 10 6 0 10 -4 10 -10z
m34 -15 c-4 -8 -7 -15 -9 -15 -2 0 -5 7 -9 15 -3 9 0 15 9 15 9 0 12 -6 9 -15z
m21 -35 c3 -5 -3 -10 -14 -10 -12 0 -21 5 -21 10 0 6 6 10 14 10 8 0 18 -4 21
-10z m225 0 c0 -5 -4 -10 -10 -10 -5 0 -10 5 -10 10 0 6 5 10 10 10 6 0 10 -4
10 -10z m-188 -15 c0 -5 -5 -11 -11 -13 -6 -2 -11 4 -11 13 0 9 5 15 11 13 6
-2 11 -8 11 -13z m-97 -11 c17 -13 18 -16 5 -24 -8 -5 -23 -10 -34 -10 -15 0
-16 3 -6 15 11 13 10 14 -6 8 -17 -6 -17 -5 -5 10 16 21 20 21 46 1z m61 -41
c-11 -12 -27 13 -20 32 7 17 8 17 17 -3 6 -12 7 -25 3 -29z m104 37 c0 -5 -4
-10 -10 -10 -5 0 -10 5 -10 10 0 6 5 10 10 10 6 0 10 -4 10 -10z m185 -30 c3
-5 1 -10 -4 -10 -6 0 -11 5 -11 10 0 6 2 10 4 10 3 0 8 -4 11 -10z m-333 -16
c-5 -9 -7 -26 -4 -38 3 -14 1 -18 -6 -11 -21 20 -18 65 3 65 12 0 14 -4 7 -16z
m-162 -4 c0 -5 -4 -10 -10 -10 -5 0 -10 5 -10 10 0 6 5 10 10 10 6 0 10 -4 10
-10z m60 -22 c0 -5 -7 -8 -15 -8 -17 0 -18 2 -9 25 5 13 8 14 15 3 5 -7 9 -16
9 -20z m280 12 c0 -5 -5 -10 -11 -10 -5 0 -7 5 -4 10 3 6 8 10 11 10 2 0 4 -4
4 -10z m-328 -32 c-9 -9 -15 -9 -24 0 -9 9 -7 12 12 12 19 0 21 -3 12 -12z
m181 -21 c-7 -11 -23 2 -23 19 0 12 2 12 14 2 8 -7 12 -16 9 -21z m-193 -18
c0 -5 -4 -9 -10 -9 -5 0 -10 7 -10 16 0 8 5 12 10 9 6 -3 10 -10 10 -16z m190
-39 c0 -5 -2 -10 -4 -10 -3 0 -8 5 -11 10 -3 6 -1 10 4 10 6 0 11 -4 11 -10z
m-50 -24 c0 -3 -4 -8 -10 -11 -5 -3 -10 -1 -10 4 0 6 5 11 10 11 6 0 10 -2 10
-4z m64 -5 c3 -5 -3 -11 -14 -14 -13 -3 -20 0 -20 9 0 15 26 19 34 5z m86 -11
c0 -11 -7 -20 -15 -20 -18 0 -19 12 -3 28 16 16 18 15 18 -8z m30 -1 c0 -5 -4
-9 -10 -9 -5 0 -10 7 -10 16 0 8 5 12 10 9 6 -3 10 -10 10 -16z m-70 1 c0 -5
-2 -10 -4 -10 -3 0 -8 5 -11 10 -3 6 -1 10 4 10 6 0 11 -4 11 -10z m-35 -46
c0 -25 -3 -29 -25 -25 -36 5 -44 23 -18 44 28 23 43 17 43 -19z m118 -23 c13
8 17 6 17 -7 0 -14 -7 -15 -42 -10 -45 7 -61 16 -41 23 7 2 9 12 6 21 -3 10 4
6 19 -10 18 -20 28 -24 41 -17z m-73 25 c0 -11 -19 -15 -25 -6 -3 5 1 10 9 10
9 0 16 -2 16 -4z m-123 -38 c-3 -7 -5 -2 -5 12 0 14 2 19 5 13 2 -7 2 -19 0
-25z m-52 -18 c3 -5 -3 -10 -14 -10 -12 0 -21 5 -21 10 0 6 6 10 14 10 8 0 18
-4 21 -10z m95 -10 c0 -5 -2 -10 -4 -10 -3 0 -8 5 -11 10 -3 6 -1 10 4 10 6 0
11 -4 11 -10z m160 6 c0 -3 -4 -8 -10 -11 -5 -3 -10 -1 -10 4 0 6 5 11 10 11
6 0 10 -2 10 -4z m-205 -26 c3 -5 -1 -10 -9 -10 -9 0 -16 5 -16 10 0 6 4 10 9
10 6 0 13 -4 16 -10z m181 -15 c-11 -8 -27 -14 -35 -14 -13 1 -12 2 2 6 9 2
17 9 17 14 0 5 8 9 18 9 15 -1 15 -2 -2 -15z m-236 -20 c24 -13 24 -14 4 -15
-12 0 -27 7 -34 15 -16 19 -3 19 30 0z m-60 -15 c0 -5 -4 -10 -10 -10 -5 0
-10 5 -10 10 0 6 5 10 10 10 6 0 10 -4 10 -10z m206 -15 c-3 -8 0 -15 6 -15
20 0 -2 -14 -27 -17 -19 -3 -25 1 -25 16 0 17 12 26 44 30 4 0 6 -6 2 -14z
m224 6 c0 -5 -6 -14 -14 -20 -11 -9 -16 -9 -21 0 -4 6 -1 15 6 20 18 11 29 11
29 0z m-375 -11 c-3 -5 -10 -10 -16 -10 -5 0 -9 5 -9 10 0 6 7 10 16 10 8 0
12 -4 9 -10z m220 -10 c3 -5 -1 -10 -9 -10 -9 0 -16 5 -16 10 0 6 4 10 9 10 6
0 13 -4 16 -10z m-136 -61 c-22 -14 -33 -10 -19 6 7 8 17 12 22 9 6 -4 5 -10
-3 -15z m118 -4 c-5 -14 -29 -13 -34 2 -3 7 4 11 16 10 12 -1 20 -6 18 -12z
m95 -22 c-15 -7 -21 -12 -14 -13 15 0 6 -20 -9 -20 -14 0 -11 23 7 48 12 18
18 19 29 9 11 -10 9 -14 -13 -24z m-307 -3 c3 -5 -1 -10 -9 -10 -9 0 -16 5
-16 10 0 6 4 10 9 10 6 0 13 -4 16 -10z m59 -15 c3 -8 1 -15 -3 -15 -5 0 -11
7 -15 15 -3 8 -1 15 3 15 5 0 11 -7 15 -15z m60 -1 c5 -14 4 -15 -9 -4 -17 14
-19 20 -6 20 5 0 12 -7 15 -16z m93 -11 c-14 -4 -17 -11 -12 -33 6 -25 4 -28
-14 -23 -14 3 -21 14 -21 28 0 25 12 34 45 33 17 0 18 -1 2 -5z m-57 -24 c0
-16 -27 -21 -49 -9 -32 16 -25 26 14 22 19 -2 35 -8 35 -13z m240 -32 c0 -23
-33 -19 -38 5 -2 12 3 16 17 15 13 -1 21 -8 21 -20z m-272 -47 c-2 -5 -9 -6
-16 -1 -7 4 -10 15 -6 25 6 17 8 17 16 2 5 -9 8 -21 6 -26z m-42 17 c4 -4 -2
-7 -14 -7 -12 0 -22 4 -22 9 0 10 26 9 36 -2z m78 -8 c-3 -5 21 -6 55 -3 51 6
62 4 67 -10 3 -9 12 -16 19 -16 18 0 34 -22 60 -86 22 -54 22 -60 9 -108 -8
-28 -20 -60 -26 -71 -8 -13 -8 -20 0 -23 15 -5 3 -32 -13 -32 -7 0 -15 5 -17
11 -3 8 -10 6 -20 -5 -9 -9 -26 -16 -37 -16 -12 0 -21 -6 -21 -14 0 -11 -7
-12 -27 -6 -16 5 -55 16 -88 26 -60 18 -89 37 -90 58 -1 25 -29 92 -43 102
-14 10 -13 12 6 18 12 4 22 15 22 24 0 27 32 102 44 103 23 3 32 5 58 18 22
11 25 17 18 31 -8 15 -6 17 10 13 11 -3 17 -9 14 -14z m36 11 c0 -5 -2 -10 -4
-10 -3 0 -8 5 -11 10 -3 6 -1 10 4 10 6 0 11 -4 11 -10z m-194 -109 c-12 -19
-36 -12 -46 14 -5 14 -17 28 -25 31 -8 4 -15 18 -15 32 0 24 2 23 46 -21 26
-25 43 -50 40 -56z m69 79 c-3 -5 -11 -10 -16 -10 -6 0 -7 5 -4 10 3 6 11 10
16 10 6 0 7 -4 4 -10z m-45 -21 c0 -24 -23 -21 -28 4 -2 10 3 17 12 17 10 0
16 -9 16 -21z m-83 -211 c-3 -8 -6 -5 -6 6 -1 11 2 17 5 13 3 -3 4 -12 1 -19z
m473 -68 c0 -5 -5 -10 -11 -10 -5 0 -7 5 -4 10 3 6 8 10 11 10 2 0 4 -4 4 -10z
m-385 -20 c-3 -5 -10 -10 -16 -10 -5 0 -9 5 -9 10 0 6 7 10 16 10 8 0 12 -4 9
-10z m-88 -52 c-3 -8 -6 -5 -6 6 -1 11 2 17 5 13 3 -3 4 -12 1 -19z m83 2 c0
-5 -2 -10 -4 -10 -3 0 -8 5 -11 10 -3 6 -1 10 4 10 6 0 11 -4 11 -10z m103 4
c11 -11 -3 -24 -18 -18 -8 4 -12 10 -9 15 6 11 18 12 27 3z m44 -16 c-3 -8 -6
-5 -6 6 -1 11 2 17 5 13 3 -3 4 -12 1 -19z m-87 -8 c0 -5 -4 -10 -10 -10 -5 0
-10 5 -10 10 0 6 5 10 10 10 6 0 10 -4 10 -10z m125 0 c3 -5 -1 -10 -9 -10 -9
0 -16 5 -16 10 0 6 4 10 9 10 6 0 13 -4 16 -10z m65 0 c0 -5 -2 -10 -4 -10 -3
0 -8 5 -11 10 -3 6 -1 10 4 10 6 0 11 -4 11 -10z m-203 -52 c-3 -8 -6 -5 -6 6
-1 11 2 17 5 13 3 -3 4 -12 1 -19z m-122 -8 c10 -11 13 -20 7 -20 -6 0 -16 9
-22 20 -6 11 -9 20 -7 20 2 0 12 -9 22 -20z m395 -6 c0 -9 -7 -14 -17 -12 -25
5 -28 28 -4 28 12 0 21 -6 21 -16z m-280 -28 c0 -3 -4 -8 -10 -11 -5 -3 -10
-1 -10 4 0 6 5 11 10 11 6 0 10 -2 10 -4z m100 -16 c0 -5 -7 -10 -16 -10 -8 0
-12 5 -9 10 3 6 10 10 16 10 5 0 9 -4 9 -10z m58 -22 c-7 -19 -38 -22 -38 -4
0 10 9 16 21 16 12 0 19 -5 17 -12z m-63 -18 c-5 -9 3 -12 25 -12 3 0 16 3 29
7 17 5 22 4 18 -6 -2 -8 -10 -13 -16 -11 -7 1 -20 -2 -30 -8 -14 -7 -22 -6
-31 5 -10 13 -7 35 6 35 3 0 2 -4 -1 -10z m280 0 c3 -5 -1 -10 -9 -10 -14 0
-21 -18 -17 -42 0 -5 -5 -8 -13 -8 -8 0 -13 10 -13 25 0 15 5 25 13 25 8 0 14
5 14 10 0 6 4 10 9 10 6 0 13 -4 16 -10z m-405 -30 c0 -5 -4 -10 -10 -10 -5 0
-10 5 -10 10 0 6 5 10 10 10 6 0 10 -4 10 -10z m110 -20 c0 -5 -5 -10 -11 -10
-5 0 -7 5 -4 10 3 6 8 10 11 10 2 0 4 -4 4 -10z m70 -4 c0 -3 -4 -8 -10 -11
-5 -3 -10 -1 -10 4 0 6 5 11 10 11 6 0 10 -2 10 -4z m-50 -26 c0 -5 -4 -10
-10 -10 -5 0 -10 5 -10 10 0 6 5 10 10 10 6 0 10 -4 10 -10z m-220 -10 c0 -5
-4 -10 -10 -10 -5 0 -10 5 -10 10 0 6 5 10 10 10 6 0 10 -4 10 -10z m260 -6
c0 -17 -22 -14 -28 4 -2 7 3 12 12 12 9 0 16 -7 16 -16z m-132 -72 c9 9 12 8
12 -5 0 -23 -40 -43 -51 -26 -18 29 -3 61 17 35 8 -12 13 -13 22 -4z m-58 -79
c0 -13 -3 -13 -15 -3 -8 7 -12 16 -9 21 8 13 24 1 24 -18z m118 6 c11 0 12 -2
5 -6 -7 -2 -13 -16 -13 -29 0 -43 -15 -26 -17 19 0 23 1 36 4 30 3 -7 12 -13
21 -14z m-78 -114 c0 -23 -2 -24 -21 -15 -16 9 -18 14 -8 26 17 21 29 17 29
-11z m148 -53 c2 -7 -1 -12 -7 -12 -6 0 -11 4 -11 10 0 5 -8 7 -17 4 -15 -5
-16 -4 -3 5 17 12 32 10 38 -7z m-18 -32 c-8 -5 -19 -10 -25 -10 -5 0 -3 5 5
10 8 5 20 10 25 10 6 0 3 -5 -5 -10z m-210 -10 c0 -5 -4 -10 -10 -10 -5 0 -10
5 -10 10 0 6 5 10 10 10 6 0 10 -4 10 -10z m38 -13 c3 -12 -3 -17 -20 -16 -13
0 -18 3 -11 5 7 3 9 12 6 21 -4 11 -2 14 8 11 8 -3 15 -12 17 -21z m42 -1 c0
-3 -4 -8 -10 -11 -5 -3 -10 -1 -10 4 0 6 5 11 10 11 6 0 10 -2 10 -4z m137
-13 c-7 -8 -21 -11 -30 -7 -27 10 -19 23 14 22 26 -1 28 -3 16 -15z m158 7
c-3 -5 -10 -10 -16 -10 -5 0 -9 5 -9 10 0 6 7 10 16 10 8 0 12 -4 9 -10z m86
-15 c-1 -15 -24 -12 -29 3 -3 9 2 13 12 10 10 -1 17 -7 17 -13z m-351 -15 c0
-5 -9 -10 -21 -10 -11 0 -17 5 -14 10 3 6 13 10 21 10 8 0 14 -4 14 -10z m184
-1 c-3 -6 -11 -8 -17 -6 -6 2 -21 -5 -32 -15 -19 -18 -20 -18 -27 -1 -5 13 -7
14 -7 3 -1 -13 -2 -13 -11 0 -7 11 -5 17 8 21 28 10 93 9 86 -2z m52 -15 c-5
-14 -9 -15 -19 -5 -9 9 -9 14 3 21 18 11 24 6 16 -16z m-346 -41 c0 -19 -3
-24 -10 -17 -6 6 -8 18 -4 27 9 24 14 21 14 -10z m76 0 c-10 -10 -19 5 -10 18
6 11 8 11 12 0 2 -7 1 -15 -2 -18z m229 17 c-3 -5 -12 -10 -18 -10 -7 0 -6 4
3 10 19 12 23 12 15 0z m-45 -30 c0 -5 -4 -10 -10 -10 -5 0 -10 5 -10 10 0 6
5 10 10 10 6 0 10 -4 10 -10z m-180 -20 c0 -5 -2 -10 -4 -10 -3 0 -8 5 -11 10
-3 6 -1 10 4 10 6 0 11 -4 11 -10z m265 0 c3 -5 -1 -10 -9 -10 -9 0 -16 5 -16
10 0 6 4 10 9 10 6 0 13 -4 16 -10z m100 -30 c3 -5 1 -10 -4 -10 -6 0 -11 5
-11 10 0 6 2 10 4 10 3 0 8 -4 11 -10z m-221 -9 c7 -10 -3 -41 -13 -41 -3 0
-6 11 -6 25 0 25 9 33 19 16z m106 -6 c0 -8 -7 -15 -15 -15 -16 0 -20 12 -8
23 11 12 23 8 23 -8z m-287 -40 c-3 -9 -8 -14 -10 -11 -3 3 -2 9 2 15 9 16 15
13 8 -4z m34 -11 c-3 -3 -12 -4 -19 -1 -8 3 -5 6 6 6 11 1 17 -2 13 -5z m43
-24 c0 -5 -4 -10 -10 -10 -5 0 -10 -7 -10 -15 0 -9 -7 -18 -15 -21 -8 -4 -12
-11 -8 -17 3 -6 1 -7 -5 -3 -18 11 -15 56 3 56 8 0 15 5 15 10 0 6 7 10 15 10
8 0 15 -4 15 -10z m67 -6 c14 -14 14 -16 -6 -21 -11 -3 -21 -12 -21 -19 0 -8
-5 -14 -10 -14 -7 0 -7 6 0 19 7 15 6 23 -6 35 -14 15 -13 16 6 16 12 0 28 -7
37 -16z m173 -24 c8 -5 11 -12 8 -16 -4 -3 -14 1 -23 10 -18 17 -9 21 15 6z
m-35 -10 c3 -5 -1 -10 -10 -10 -9 0 -13 5 -10 10 3 6 8 10 10 10 2 0 7 -4 10
-10z m-315 -50 c0 -5 -5 -10 -11 -10 -5 0 -7 5 -4 10 3 6 8 10 11 10 2 0 4 -4
4 -10z m80 -20 c0 -5 -2 -10 -4 -10 -3 0 -8 5 -11 10 -3 6 -1 10 4 10 6 0 11
-4 11 -10z m-116 -14 c-3 -9 2 -16 13 -18 10 -2 14 -6 8 -10 -17 -10 -39 8
-32 26 4 9 9 16 11 16 3 0 3 -6 0 -14z m52 -4 c1 -7 0 -8 -3 -2 -2 5 -9 8 -14
4 -5 -3 -9 0 -9 6 0 15 23 7 26 -8z m144 -42 c-9 -17 -50 -35 -50 -21 0 3 7
16 15 28 19 27 50 21 35 -7z m-150 -20 c0 -10 -10 -25 -22 -31 -13 -6 -20 -8
-16 -4 4 5 3 14 -3 21 -14 17 -3 34 22 34 12 0 19 -7 19 -20z m60 -10 c0 -5
-6 -10 -14 -10 -8 0 -18 5 -21 10 -3 6 3 10 14 10 12 0 21 -4 21 -10z m-90
-100 c0 -5 -2 -10 -4 -10 -3 0 -8 5 -11 10 -3 6 -1 10 4 10 6 0 11 -4 11 -10z
m128 -7 c5 -17 -26 -29 -40 -15 -6 6 -7 15 -3 22 9 14 37 9 43 -7z m-68 -63
c0 -5 -4 -10 -9 -10 -6 0 -13 5 -16 10 -3 6 1 10 9 10 9 0 16 -4 16 -10z m-60
-50 c0 -5 -4 -10 -9 -10 -6 0 -13 5 -16 10 -3 6 1 10 9 10 9 0 16 -4 16 -10z
m121 -43 c-6 -6 -21 -5 -38 1 -28 11 -28 11 9 9 23 0 34 -5 29 -10z m-55 -22
c-21 -16 -32 -13 -21 4 3 6 14 11 23 11 15 -1 15 -2 -2 -15z m100 0 c9 -8 24
-15 34 -15 20 0 36 -17 26 -27 -3 -3 -11 -2 -18 3 -7 5 -28 9 -45 9 -21 0 -33
4 -33 13 0 7 4 10 10 7 6 -3 7 1 4 9 -8 20 3 20 22 1z m79 5 c3 -5 1 -10 -4
-10 -6 0 -11 5 -11 10 0 6 2 10 4 10 3 0 8 -4 11 -10z m-60 -70 c3 -5 1 -10
-4 -10 -6 0 -11 5 -11 10 0 6 2 10 4 10 3 0 8 -4 11 -10z m36 -33 c-10 -9 -11
-8 -5 6 3 10 9 15 12 12 3 -3 0 -11 -7 -18z m259 -7 c0 -5 -5 -10 -11 -10 -5
0 -7 5 -4 10 3 6 8 10 11 10 2 0 4 -4 4 -10z m-180 -46 c0 -9 -7 -14 -17 -12
-25 5 -28 28 -4 28 12 0 21 -6 21 -16z m70 2 c0 -11 -19 -15 -25 -6 -3 5 1 10
9 10 9 0 16 -2 16 -4z m-60 -122 c0 -2 -7 -4 -15 -4 -8 0 -15 4 -15 10 0 5 7
7 15 4 8 -4 15 -8 15 -10z m170 -164 c0 -5 -7 -10 -15 -10 -8 0 -15 5 -15 10
0 6 7 10 15 10 8 0 15 -4 15 -10z m-160 -10 c0 -5 -4 -10 -9 -10 -6 0 -13 5
-16 10 -3 6 1 10 9 10 9 0 16 -4 16 -10z m93 -12 c32 -3 31 -2 11 -22 -20 -21
-64 -21 -64 -1 0 8 4 15 10 15 5 0 7 8 4 18 -4 12 -3 13 3 5 5 -7 21 -14 36
-15z m3 -86 c-3 -2 -18 -1 -33 3 -25 7 -26 8 -8 15 19 7 51 -7 41 -18z m49
-30 c14 -10 18 -42 5 -42 -6 0 -9 4 -5 9 3 5 -2 17 -11 25 -16 16 -8 22 11 8z
m2 -123 c1 -14 0 -17 -3 -6 -3 9 -10 17 -15 17 -5 0 -9 5 -9 11 0 22 25 2 27
-22z"/>
<path d="M7780 5730 c0 -5 5 -10 10 -10 6 0 10 5 10 10 0 6 -4 10 -10 10 -5 0
-10 -4 -10 -10z"/>
<path d="M7648 5713 c7 -3 16 -2 19 1 4 3 -2 6 -13 5 -11 0 -14 -3 -6 -6z"/>
<path d="M7958 5703 c7 -3 16 -2 19 1 4 3 -2 6 -13 5 -11 0 -14 -3 -6 -6z"/>
<path d="M7873 5687 c4 -10 -3 -12 -27 -9 -28 5 -30 3 -17 -12 7 -9 22 -16 32
-16 11 0 19 -7 19 -15 0 -9 -6 -12 -17 -8 -14 5 -15 3 -6 -7 9 -10 16 -9 33 3
17 12 18 15 5 20 -8 4 -15 11 -15 17 0 6 6 8 13 4 9 -6 9 -5 0 8 -7 8 -10 18
-6 21 3 4 1 7 -6 7 -7 0 -11 -6 -8 -13z"/>
<path d="M7790 5655 c-11 -13 -9 -15 14 -15 14 0 26 -4 26 -10 0 -5 -7 -10
-16 -10 -14 0 -14 -3 -4 -15 7 -8 18 -15 25 -15 8 0 15 -5 17 -12 2 -6 10 -8
17 -4 16 10 -7 39 -26 32 -11 -4 -11 -1 -3 14 9 16 7 22 -7 27 -10 4 -21 10
-24 15 -3 5 -12 2 -19 -7z"/>
<path d="M7698 5633 c7 -3 16 -2 19 1 4 3 -2 6 -13 5 -11 0 -14 -3 -6 -6z"/>
<path d="M7650 5581 c0 -6 5 -13 10 -16 6 -3 10 -2 10 4 0 6 7 7 17 4 11 -4
14 -3 9 5 -9 14 -46 16 -46 3z"/>
<path d="M85 5500 c-3 -5 -1 -10 4 -10 6 0 11 5 11 10 0 6 -2 10 -4 10 -3 0
-8 -4 -11 -10z"/>
<path d="M7616 5425 c-3 -8 -1 -15 4 -15 6 0 10 7 10 15 0 8 -2 15 -4 15 -2 0
-6 -7 -10 -15z"/>
<path d="M7596 5391 c-4 -7 -5 -15 -2 -18 9 -9 19 4 14 18 -4 11 -6 11 -12 0z"/>
<path d="M7590 5293 c0 -22 2 -25 10 -13 13 20 13 40 0 40 -5 0 -10 -12 -10
-27z"/>
<path d="M7841 5284 c0 -11 3 -14 6 -6 3 7 2 16 -1 19 -3 4 -6 -2 -5 -13z"/>
<path d="M155 5198 c-22 -50 -65 -93 -112 -113 -36 -16 -43 -24 -43 -46 0 -15
6 -30 13 -33 9 -5 9 -7 0 -12 -17 -7 -17 -31 0 -38 9 -5 9 -7 0 -12 -18 -8
-16 -24 2 -24 8 0 15 -4 15 -9 0 -6 9 -8 20 -6 14 3 20 -2 20 -14 0 -9 5 -22
12 -29 9 -9 4 -10 -21 -2 -38 11 -53 -9 -27 -35 21 -21 42 -9 24 13 -11 15
-11 15 3 5 9 -7 19 -10 23 -6 4 4 2 -6 -4 -22 -8 -21 -8 -31 -1 -33 6 -2 9 -8
5 -13 -3 -5 2 -9 10 -9 9 0 16 -5 16 -11 0 -7 -10 -9 -25 -7 -14 3 -28 1 -32
-5 -3 -5 -1 -7 4 -4 6 4 14 0 17 -9 3 -8 2 -12 -3 -9 -5 3 -12 1 -15 -4 -10
-16 48 -23 80 -10 31 13 64 12 78 -1 5 -5 16 -6 25 -3 9 3 1 -4 -17 -16 -38
-25 -60 -27 -68 -6 -4 10 -10 12 -18 7 -6 -5 -23 -12 -38 -16 -16 -3 -28 -11
-28 -16 0 -14 -27 -12 -33 3 -3 6 -6 0 -6 -15 -1 -16 -5 -28 -10 -28 -19 0
-24 -42 -7 -52 20 -11 21 -28 1 -28 -12 0 -15 -17 -14 -95 0 -52 4 -93 9 -90
5 3 11 1 15 -5 3 -5 -1 -10 -9 -10 -9 0 -16 -4 -16 -10 0 -5 6 -10 13 -10 9 0
8 -3 -2 -9 -19 -12 -6 -28 21 -26 18 1 24 8 26 34 2 23 7 31 18 27 8 -3 14 -1
14 5 0 6 4 8 8 5 4 -3 8 7 8 22 -1 16 4 26 12 25 16 -4 16 9 0 26 -7 8 -8 11
-3 8 12 -6 14 32 3 49 -5 7 4 16 22 24 30 12 60 40 43 40 -13 0 -53 39 -53 52
0 6 11 3 25 -6 14 -9 29 -14 34 -12 5 3 14 -1 21 -9 9 -11 9 -15 1 -15 -6 0 5
-16 24 -35 20 -19 38 -46 39 -60 1 -13 10 -33 19 -42 8 -10 16 -21 16 -25 1
-5 1 -9 2 -10 0 -2 3 -16 5 -33 2 -16 6 -43 8 -60 3 -16 6 -43 8 -58 2 -20 9
-29 26 -34 18 -4 21 -8 11 -17 -8 -8 -13 -8 -16 2 -3 6 -9 9 -14 6 -15 -9 10
-34 27 -27 10 4 14 -3 14 -28 0 -26 -3 -30 -10 -19 -8 12 -10 11 -10 -7 0 -12
5 -25 10 -28 8 -5 8 -11 0 -20 -8 -10 -7 -14 2 -17 11 -4 11 -8 0 -20 -9 -11
-10 -18 -2 -23 6 -3 8 -10 5 -15 -3 -5 -1 -11 5 -15 15 -9 13 98 -2 113 -9 9
-9 12 0 12 8 0 12 24 11 79 -1 72 -2 78 -20 74 -10 -3 -19 0 -19 6 0 6 9 11
20 11 17 0 20 7 20 51 0 45 -2 50 -15 39 -12 -10 -18 -10 -30 0 -14 12 -14 15
1 31 10 11 23 19 31 19 9 0 13 13 13 43 -1 38 -2 40 -15 23 -8 -11 -20 -16
-30 -12 -19 7 -15 31 6 31 8 1 13 6 11 13 -1 7 5 12 13 12 13 0 15 36 15 266
0 209 -3 264 -12 258 -10 -6 -10 -4 0 7 14 16 16 49 2 49 -5 0 -10 5 -10 11 0
5 5 7 10 4 6 -4 10 17 10 54 0 49 -3 61 -16 61 -8 0 -12 -4 -9 -10 3 -5 1 -10
-4 -10 -6 0 -11 5 -11 10 0 6 -7 10 -16 10 -9 0 -12 -5 -8 -12 5 -7 3 -8 -6
-3 -8 5 -18 1 -27 -10 -7 -11 -13 -14 -13 -9 0 6 -13 9 -29 6 -22 -3 -29 1
-34 17 -8 34 -45 27 -62 -11z m195 -28 c0 -18 -3 -19 -22 -9 -22 12 -22 12 -3
20 11 4 21 8 23 8 1 1 2 -8 2 -19z m-192 -54 c-10 -7 -14 -17 -10 -22 4 -4 -1
-3 -10 4 -15 12 -15 15 0 33 11 13 19 16 27 8 7 -7 5 -14 -7 -23z m126 -25 c3
-5 0 -11 -8 -14 -15 -6 -26 1 -26 15 0 11 27 10 34 -1z m61 -11 c-3 -5 -10
-10 -16 -10 -5 0 -9 5 -9 10 0 6 7 10 16 10 8 0 12 -4 9 -10z m-177 -11 c-2
-6 -8 -10 -13 -10 -5 0 -11 4 -13 10 -2 6 4 11 13 11 9 0 15 -5 13 -11z m-133
-19 c3 -5 -1 -10 -9 -10 -9 0 -16 5 -16 10 0 6 4 10 9 10 6 0 13 -4 16 -10z
m305 -9 c0 -5 -7 -11 -14 -14 -10 -4 -13 -1 -9 9 6 15 23 19 23 5z m-270 -29
c0 -21 -19 -42 -38 -42 -9 0 -11 7 -6 23 11 36 44 51 44 19z m296 -13 c10 -17
-23 -46 -38 -31 -8 8 -8 15 2 27 15 18 26 19 36 4z m-261 -8 c3 -5 1 -12 -5
-16 -5 -3 -10 1 -10 9 0 18 6 21 15 7z m70 -42 c5 -22 3 -34 -6 -40 -23 -14
-39 -10 -39 10 0 11 -5 23 -10 26 -6 4 -8 11 -4 16 3 5 9 7 14 4 5 -3 11 -1
15 5 11 19 23 10 30 -21z m150 -9 c3 -5 1 -10 -4 -10 -6 0 -11 5 -11 10 0 6 2
10 4 10 3 0 8 -4 11 -10z m-225 -24 c0 -3 -4 -8 -10 -11 -5 -3 -10 -1 -10 4 0
6 5 11 10 11 6 0 10 -2 10 -4z m266 -35 c-10 -16 -36 -13 -36 3 0 17 21 27 34
16 4 -5 5 -13 2 -19z m-111 9 c3 -5 1 -10 -4 -10 -6 0 -11 5 -11 10 0 6 2 10
4 10 3 0 8 -4 11 -10z m-60 -10 c3 -5 -1 -10 -10 -10 -9 0 -13 5 -10 10 3 6 8
10 10 10 2 0 7 -4 10 -10z m75 -40 c8 -5 17 -5 20 -1 6 11 50 -5 50 -18 0 -10
-54 -18 -82 -13 -10 2 -18 12 -18 23 0 21 8 23 30 9z m-80 -80 c0 -5 -4 -10
-9 -10 -5 0 -16 -3 -25 -6 -9 -3 -16 -1 -16 4 0 9 16 17 43 21 4 0 7 -3 7 -9z
m125 0 c-3 -5 -10 -10 -16 -10 -5 0 -9 5 -9 10 0 6 7 10 16 10 8 0 12 -4 9
-10z m15 -65 c0 -19 -12 -25 -27 -14 -19 16 -16 25 7 25 11 0 20 -5 20 -11z
m-20 -49 c0 -11 -19 -15 -25 -6 -3 5 1 10 9 10 9 0 16 -2 16 -4z m-91 -19 c8
-11 5 -13 -19 -9 -17 2 -30 8 -30 13 0 14 36 11 49 -4z m41 -7 c0 -5 -5 -10
-11 -10 -5 0 -7 5 -4 10 3 6 8 10 11 10 2 0 4 -4 4 -10z m90 -30 c0 -5 -7 -10
-15 -10 -8 0 -15 5 -15 10 0 6 7 10 15 10 8 0 15 -4 15 -10z m-256 -81 c-8
-14 -54 4 -54 22 0 17 1 17 29 1 16 -9 28 -19 25 -23z m6 31 c0 -5 -4 -10 -10
-10 -5 0 -10 5 -10 10 0 6 5 10 10 10 6 0 10 -4 10 -10z m253 -20 c-3 -12 -8
-19 -11 -16 -5 6 5 36 12 36 2 0 2 -9 -1 -20z m-258 -63 c17 -13 17 -14 -3
-19 -14 -4 -22 0 -25 13 -6 22 2 24 28 6z m-43 -22 c-2 -4 2 -12 10 -17 9 -6
8 -8 -7 -6 -12 2 -19 -2 -17 -10 1 -8 -2 -11 -8 -7 -6 3 -8 10 -5 15 3 5 1 11
-5 15 -6 4 -8 10 -5 15 6 10 41 6 37 -5z"/>
<path d="M1150 5015 c-18 -22 3 -70 27 -61 12 5 13 4 4 -7 -8 -11 -6 -18 8
-31 11 -10 25 -15 32 -10 8 4 10 3 5 -4 -11 -18 15 -39 43 -35 22 4 24 3 9 -7
-29 -18 -21 -30 12 -19 37 13 39 40 5 67 -14 11 -25 23 -25 27 0 3 -17 26 -37
51 -39 46 -62 54 -83 29z"/>
<path d="M1507 5023 c-13 -12 -7 -22 9 -16 14 5 14 3 3 -15 -16 -26 2 -52 31
-45 11 3 20 0 20 -6 0 -6 -7 -11 -16 -11 -10 0 -1 -16 27 -50 34 -40 48 -50
68 -48 45 5 39 41 -20 111 -29 34 -60 68 -68 75 -16 13 -44 16 -54 5z m63 -23
c0 -5 -4 -10 -10 -10 -5 0 -10 5 -10 10 0 6 5 10 10 10 6 0 10 -4 10 -10z"/>
<path d="M6700 4984 c0 -8 5 -12 10 -9 6 3 10 10 10 16 0 5 -4 9 -10 9 -5 0
-10 -7 -10 -16z"/>
<path d="M6734 4969 c-4 -7 -1 -10 7 -7 21 8 50 -51 35 -74 -8 -14 -6 -22 11
-39 23 -23 49 -20 59 5 8 21 -72 126 -95 126 -6 0 -13 -5 -17 -11z"/>
<path d="M8116 4955 c4 -8 11 -15 16 -15 6 0 5 6 -2 15 -7 8 -14 15 -16 15 -2
0 -1 -7 2 -15z"/>
<path d="M6408 4903 c6 -2 12 -12 12 -22 0 -9 6 -26 14 -36 13 -18 14 -18 25
3 10 19 9 22 -7 22 -11 0 -22 9 -25 20 -3 11 -11 20 -19 19 -10 0 -10 -2 0 -6z"/>
<path d="M847 4592 c-22 -24 -23 -84 -2 -76 8 4 15 1 15 -5 0 -7 -7 -14 -15
-17 -19 -8 -21 -80 -2 -87 10 -4 10 -6 0 -6 -8 -1 -13 -16 -13 -42 0 -32 6
-47 30 -71 17 -17 29 -32 28 -34 -9 -8 -47 10 -52 25 -2 9 -4 -29 -4 -84 0
-63 5 -103 12 -107 8 -6 8 -10 -1 -16 -9 -6 -12 -53 -11 -175 1 -152 2 -167
18 -167 10 0 22 -6 28 -12 8 -10 4 -13 -15 -14 -28 -2 -44 -15 -26 -21 10 -3
10 -9 0 -24 -10 -16 -9 -21 2 -28 9 -6 10 -11 2 -15 -15 -10 -14 -43 2 -49 10
-4 10 -6 0 -6 -20 -1 -15 -46 7 -66 15 -13 23 -16 31 -8 8 8 6 15 -10 25 -28
17 -27 24 7 31 26 5 28 9 29 61 1 48 -1 56 -17 56 -10 0 -22 5 -25 10 -4 6 5
10 19 10 23 0 26 4 26 36 0 31 -3 36 -20 31 -11 -3 -22 -1 -25 3 -3 5 5 10 17
12 19 2 24 10 26 42 2 25 0 36 -7 31 -6 -3 -11 -2 -11 4 0 6 -7 8 -15 5 -9 -4
-15 0 -15 9 0 9 10 17 23 19 l22 3 3 324 c1 179 5 327 7 329 2 3 46 5 97 6
181 4 182 4 167 22 -7 8 -21 13 -32 10 -17 -4 -53 9 -67 25 -13 15 -40 17 -40
4 0 -8 -7 -15 -16 -15 -14 0 -14 3 -4 15 11 13 2 15 -72 15 -70 0 -88 -3 -101
-18z m77 -24 c-5 -8 -2 -9 9 -5 9 3 19 1 23 -4 4 -7 -3 -9 -17 -7 -23 3 -40
28 -19 28 6 0 8 -5 4 -12z m86 -12 c0 -3 -4 -8 -10 -11 -5 -3 -10 -1 -10 4 0
6 5 11 10 11 6 0 10 -2 10 -4z m-140 -210 c0 -3 -4 -8 -10 -11 -5 -3 -10 -1
-10 4 0 6 5 11 10 11 6 0 10 -2 10 -4z m25 -276 c-3 -5 -12 -7 -20 -3 -21 7
-19 13 6 13 11 0 18 -4 14 -10z m5 -71 c0 -12 -37 -12 -44 0 -3 4 -3 11 0 14
8 7 44 -4 44 -14z m0 -90 c0 -5 -2 -9 -4 -9 -2 0 -11 -3 -19 -6 -8 -3 -17 1
-20 9 -4 10 2 15 19 15 13 0 24 -4 24 -9z m-30 -129 c0 -5 -4 -10 -10 -10 -5
0 -10 5 -10 10 0 6 5 10 10 10 6 0 10 -4 10 -10z"/>
<path d="M1700 4586 c-5 -14 -22 -32 -37 -40 -26 -15 -17 -16 135 -13 146 2
165 4 177 20 18 25 8 49 -16 42 -11 -4 -19 -2 -19 4 0 7 -40 11 -115 11 -113
0 -116 0 -125 -24z m77 -2 c-3 -3 -12 -4 -19 -1 -8 3 -5 6 6 6 11 1 17 -2 13
-5z m90 -31 c-8 -9 -20 -12 -26 -9 -19 12 -12 24 15 24 23 0 24 -2 11 -15z"/>
<path d="M4580 4590 c-23 -23 -26 -55 -6 -63 8 -3 12 -15 9 -31 -5 -22 -2 -25
17 -21 28 5 39 15 17 15 -24 0 -21 25 6 43 22 16 22 16 1 16 -23 1 -51 27 -40
38 3 3 6 2 6 -3 0 -19 36 -13 37 7 2 25 -22 24 -47 -1z m20 -50 c0 -5 -4 -10
-10 -10 -5 0 -10 5 -10 10 0 6 5 10 10 10 6 0 10 -4 10 -10z"/>
<path d="M4670 4599 c-11 -7 -5 -9 22 -6 21 3 36 1 33 -3 -3 -5 -1 -11 5 -15
5 -3 10 -1 10 4 0 6 8 11 18 11 9 0 23 4 30 9 9 5 -8 9 -45 10 -32 0 -65 -4
-73 -10z"/>
<path d="M4830 4606 c0 -2 7 -6 15 -10 8 -3 15 -1 15 4 0 6 -7 10 -15 10 -8 0
-15 -2 -15 -4z"/>
<path d="M4975 4602 c-6 -4 -8 -20 -4 -37 6 -28 11 -27 13 4 1 8 8 15 16 17 8
2 25 6 38 10 17 5 22 2 22 -13 0 -10 -6 -25 -12 -32 -11 -11 -10 -13 5 -7 10
3 22 6 27 6 4 0 10 9 13 20 5 20 47 29 47 10 0 -5 -9 -10 -20 -10 -11 0 -20
-6 -20 -14 0 -9 12 -14 35 -14 34 0 45 10 25 23 -8 5 -8 11 0 20 8 9 6 14 -6
19 -22 8 -167 7 -179 -2z"/>
<path d="M5267 4603 c-4 -4 -23 -6 -43 -5 -39 3 -55 -18 -33 -44 11 -14 13
-14 21 1 5 8 14 13 19 10 5 -4 7 -11 4 -16 -10 -15 81 -10 95 6 20 24 8 50
-25 53 -17 2 -34 0 -38 -5z"/>
<path d="M5520 4587 c0 -35 19 -47 72 -47 35 0 48 -4 48 -14 0 -8 5 -18 12
-22 7 -5 9 -2 6 8 -4 9 0 15 8 15 8 0 13 -6 10 -14 -3 -7 0 -13 7 -14 7 -1 1
-4 -13 -8 -29 -8 -43 -61 -16 -61 8 0 18 -5 21 -11 4 -6 0 -9 -10 -7 -22 4
-31 -17 -11 -25 8 -3 26 3 40 14 24 19 26 27 25 92 -1 85 -6 101 -38 105 -15
2 -21 0 -17 -7 11 -18 -4 -34 -19 -21 -9 7 -16 6 -25 -5 -7 -8 -21 -15 -31
-15 -19 0 -35 33 -24 50 4 6 -5 10 -19 10 -20 0 -26 -5 -26 -23z"/>
<path d="M6043 4603 c-9 -3 -10 -9 -1 -23 6 -10 18 -16 25 -13 7 3 13 -2 13
-11 0 -23 -27 -20 -35 4 -7 24 -30 26 -39 5 -8 -23 -6 -446 2 -441 5 3 14 1
22 -5 12 -7 10 -9 -8 -9 -21 0 -23 -4 -20 -47 3 -41 6 -48 26 -51 31 -5 52 15
52 48 0 23 -4 27 -20 23 -11 -3 -20 -1 -20 5 0 5 9 12 20 15 27 7 25 26 -4 37
-14 5 -25 19 -28 34 -6 28 6 36 16 11 11 -28 25 -15 32 31 5 38 3 48 -15 65
-25 24 -28 43 -3 35 15 -5 15 -5 -1 8 -18 14 -18 15 2 25 16 9 19 19 16 49 -2
20 -4 48 -4 62 l-1 24 -17 -24 c-12 -17 -13 -25 -5 -28 20 -6 13 -18 -13 -20
-29 -2 -32 14 -7 37 9 9 18 30 20 46 3 29 2 29 -14 10 -15 -18 -16 -18 -10 -2
3 10 6 21 6 23 0 2 11 4 23 4 13 0 27 3 30 6 4 4 38 7 77 7 38 1 70 4 70 9 0
9 -14 11 -42 9 -10 -1 -18 4 -18 13 0 9 -5 16 -11 16 -5 0 -8 4 -5 9 7 11 -44
9 -62 -3 -7 -4 -18 -3 -25 2 -7 5 -17 7 -24 5z m93 -50 c-10 -10 -19 5 -10 18
6 11 8 11 12 0 2 -7 1 -15 -2 -18z m-96 -183 c0 -5 -5 -10 -11 -10 -5 0 -7 5
-4 10 3 6 8 10 11 10 2 0 4 -4 4 -10z"/>
<path d="M6204 4598 c-2 -3 3 -13 11 -22 16 -15 45 -12 45 5 0 5 9 9 20 9 11
0 20 4 20 9 0 10 -90 9 -96 -1z"/>
<path d="M6336 4602 c-11 -2 -26 -10 -34 -18 -7 -8 -20 -14 -28 -14 -8 0 -14
-5 -14 -11 0 -6 9 -9 20 -6 11 3 18 1 14 -4 -3 -5 13 -9 35 -9 26 0 41 5 41
13 0 8 3 7 10 -3 6 -10 9 -6 8 17 -1 33 -16 43 -52 35z"/>
<path d="M6770 4600 c-13 -8 -12 -10 3 -10 9 0 17 -5 17 -10 0 -6 -8 -10 -17
-8 -10 2 -19 -4 -21 -14 -3 -15 4 -18 45 -19 26 0 79 -3 118 -5 38 -3 76 -1
85 2 22 10 99 11 94 2 -6 -10 8 -10 31 -2 12 5 13 9 5 14 -7 4 -12 19 -12 34
0 24 -4 26 -47 26 -26 0 -52 -5 -59 -12 -9 -9 -12 -9 -12 0 0 16 -102 16 -117
1 -6 -6 -9 -18 -6 -25 3 -8 0 -14 -6 -14 -6 0 -11 10 -11 23 0 20 -6 23 -37
25 -21 1 -45 -2 -53 -8z m280 -15 c-7 -9 -15 -13 -17 -11 -7 7 7 26 19 26 6 0
6 -6 -2 -15z"/>
<path d="M2990 4581 c-11 -21 -14 -419 -4 -459 4 -14 12 -21 20 -18 7 3 18 -3
23 -12 7 -11 11 -12 11 -4 0 7 5 10 10 7 6 -3 10 3 10 14 0 11 -4 23 -10 26
-5 3 -10 12 -10 18 0 7 4 6 10 -3 8 -11 10 2 8 45 -2 33 -7 64 -13 68 -6 6 -6
10 3 14 6 2 12 14 11 26 0 21 -1 21 -8 3 -7 -19 -8 -19 -15 -1 -4 12 -2 23 7
30 17 12 21 105 4 105 -6 0 -2 6 9 14 16 12 20 13 24 0 6 -15 59 -81 106 -130
17 -18 43 -49 59 -69 15 -21 43 -44 62 -52 41 -16 51 -12 28 11 -9 9 -11 16
-5 16 14 0 -12 51 -36 71 -13 11 -18 11 -21 2 -9 -24 -23 -13 -23 18 0 23 -4
30 -17 28 -33 -3 -37 1 -18 15 18 13 17 17 -30 71 -28 32 -60 69 -72 84 -18
22 -24 24 -35 12 -7 -8 -8 -11 -2 -8 7 4 15 0 18 -9 4 -11 -1 -18 -14 -21 -11
-3 -20 -9 -20 -14 0 -5 -5 -9 -11 -9 -5 0 -8 4 -4 9 3 5 1 12 -5 16 -5 3 -10
11 -10 16 0 6 5 7 10 4 6 -3 10 -2 10 4 0 5 7 17 16 26 14 14 15 18 3 29 -8 8
-26 16 -41 20 -21 5 -30 2 -38 -13z m137 -117 c-3 -3 -12 -4 -19 -1 -8 3 -5 6
6 6 11 1 17 -2 13 -5z m-102 -44 c3 -5 -1 -10 -9 -10 -9 0 -16 5 -16 10 0 6 4
10 9 10 6 0 13 -4 16 -10z m152 -16 c-3 -3 -12 -4 -19 -1 -8 3 -5 6 6 6 11 1
17 -2 13 -5z m123 -134 c0 -5 -7 -10 -15 -10 -8 0 -15 5 -15 10 0 6 7 10 15
10 8 0 15 -4 15 -10z"/>
<path d="M4223 4588 c0 -7 -1 -31 -3 -53 -2 -39 -2 -39 -10 -10 l-8 30 -2 -30
c-1 -26 -3 -27 -9 -10 -5 11 -7 23 -4 28 6 10 -15 9 -21 -2 -4 -5 0 -12 6 -14
7 -3 4 -6 -7 -6 -11 -1 -27 -10 -35 -22 -24 -34 -63 -80 -102 -123 -21 -23
-36 -47 -33 -53 2 -7 -2 -13 -9 -13 -8 0 -26 -15 -40 -32 -14 -18 -36 -43 -49
-56 l-22 -22 50 7 c55 7 68 17 156 123 30 35 62 73 72 84 22 26 22 33 -4 32
-13 -1 -23 6 -24 17 -4 19 3 21 39 8 17 -7 26 -7 30 2 3 9 5 9 5 0 1 -7 7 -13
15 -13 13 0 31 -27 28 -42 -1 -5 7 -8 18 -8 18 0 19 3 10 20 -6 11 -8 25 -5
30 3 6 -1 10 -9 10 -9 0 -16 5 -16 11 0 6 9 8 20 4 11 -4 20 -2 20 4 0 6 -5
11 -11 11 -8 0 -7 6 2 17 12 15 12 16 -3 11 -9 -4 -19 -1 -21 6 -4 10 1 12 15
8 14 -3 19 -1 14 6 -4 7 -14 12 -22 12 -8 0 -14 9 -14 20 0 11 -4 20 -9 20 -5
0 -9 -6 -8 -12z m-130 -173 c-3 -9 -8 -14 -10 -11 -3 3 -2 9 2 15 9 16 15 13
8 -4z m-23 -45 c0 -5 -4 -10 -10 -10 -5 0 -10 5 -10 10 0 6 5 10 10 10 6 0 10
-4 10 -10z m-70 -80 c0 -5 -2 -10 -4 -10 -3 0 -8 5 -11 10 -3 6 -1 10 4 10 6
0 11 -4 11 -10z"/>
<path d="M4936 4581 c-3 -5 1 -11 9 -14 9 -4 12 -1 8 9 -6 16 -10 17 -17 5z"/>
<path d="M7136 4575 c-3 -8 -1 -15 4 -15 6 0 10 7 10 15 0 8 -2 15 -4 15 -2 0
-6 -7 -10 -15z"/>
<path d="M4870 4560 c-12 -8 -12 -10 2 -15 9 -4 25 -5 35 -2 14 4 13 5 -5 6
-13 0 -20 6 -17 11 8 12 4 12 -15 0z"/>
<path d="M4808 4548 c5 -5 16 -8 23 -6 8 3 3 7 -10 11 -17 4 -21 3 -13 -5z"/>
<path d="M4614 4443 c-4 -16 -12 -31 -18 -35 -6 -4 0 -8 14 -8 24 0 26 3 22
35 -5 42 -9 44 -18 8z"/>
<path d="M4561 4441 c-1 -20 1 -21 14 -11 16 14 21 25 6 16 -5 -4 -12 0 -14 6
-3 7 -6 2 -6 -11z"/>
<path d="M4201 4255 c-1 -102 1 -165 8 -165 5 0 11 5 13 12 2 6 10 9 18 6 10
-3 8 -10 -11 -29 -24 -24 -24 -26 -26 -229 -2 -151 1 -207 10 -213 9 -7 9 -10
0 -14 -23 -9 -14 -56 15 -81 15 -13 21 -21 14 -17 -13 7 -36 -40 -26 -56 11
-18 39 -8 52 18 15 34 17 234 1 250 -8 8 -8 13 0 17 6 4 11 36 11 72 0 50 -3
64 -15 64 -8 0 -15 5 -15 10 0 6 7 10 15 10 14 0 15 19 13 133 -2 97 -6 131
-15 130 -13 -3 -8 22 9 44 5 7 4 13 -4 16 -10 4 -10 6 0 6 17 1 15 50 -3 57
-18 7 -20 24 -2 24 7 0 13 15 14 35 2 24 -1 35 -11 35 -7 0 -19 7 -26 15 -31
38 -37 18 -39 -150z m39 75 c0 -5 -2 -10 -4 -10 -3 0 -8 5 -11 10 -3 6 -1 10
4 10 6 0 11 -4 11 -10z m20 -620 c0 -5 -4 -10 -10 -10 -5 0 -10 5 -10 10 0 6
5 10 10 10 6 0 10 -4 10 -10z m5 -60 c3 -5 -1 -10 -9 -10 -9 0 -16 5 -16 10 0
6 4 10 9 10 6 0 13 -4 16 -10z"/>
<path d="M4587 4366 c5 -24 3 -28 -11 -23 -20 8 -21 -3 -2 -28 14 -19 11 -55
-5 -55 -5 0 -9 -16 -9 -36 0 -31 2 -35 21 -29 16 5 20 3 17 -6 -3 -8 -12 -13
-22 -11 -9 2 -16 -4 -16 -13 0 -8 8 -15 18 -16 15 0 15 -1 -2 -8 -14 -5 -16
-10 -7 -15 6 -4 19 -5 27 -2 10 4 14 1 11 -6 -2 -7 -14 -12 -26 -11 -20 3 -21
-1 -20 -65 0 -37 3 -61 6 -53 5 11 7 11 14 0 6 -10 9 -11 9 -1 0 6 4 12 8 12
5 0 8 -13 8 -28 0 -24 -3 -28 -22 -24 -22 4 -22 2 -22 -77 1 -49 5 -81 12 -81
6 0 5 -5 -2 -12 -17 -17 -16 -155 1 -161 10 -4 10 -6 0 -6 -7 -1 -13 -8 -13
-17 0 -10 6 -14 15 -11 8 4 17 2 21 -4 3 -6 -3 -13 -15 -16 -17 -4 -21 -13
-21 -44 0 -38 14 -60 23 -37 3 8 6 6 6 -4 1 -20 4 -20 76 -19 219 3 275 6 275
13 0 10 27 10 32 0 2 -4 16 7 32 26 l29 33 -79 -2 c-45 -1 -82 -7 -86 -13 -5
-8 -8 -7 -8 2 0 9 -29 12 -110 12 l-110 0 -1 38 c-3 99 -6 126 -17 130 -6 2
-20 11 -30 20 -9 9 -13 14 -8 10 17 -13 28 -9 22 9 -4 9 -1 20 6 25 10 6 10 8
1 8 -7 0 -13 7 -13 15 0 23 19 18 30 -7 6 -17 9 -4 9 49 1 67 0 72 -21 75 -28
4 -25 24 3 21 17 -3 19 2 16 33 -2 20 -11 41 -20 46 -24 13 -21 31 3 25 20 -5
20 -1 18 169 -3 171 -3 174 -25 174 -12 0 -24 6 -27 13 -3 6 -2 -1 1 -17z m23
-126 c8 -5 13 -10 10 -11 -43 -8 -60 -2 -43 14 9 9 15 9 33 -3z m113 -730 c9
0 17 -4 17 -9 0 -13 -58 -19 -70 -7 -17 17 -11 29 13 22 12 -3 30 -6 40 -6z
m77 0 c0 -5 -4 -10 -10 -10 -5 0 -10 5 -10 10 0 6 5 10 10 10 6 0 10 -4 10
-10z m160 0 c0 -5 -4 -10 -10 -10 -5 0 -10 5 -10 10 0 6 5 10 10 10 6 0 10 -4
10 -10z m27 -12 c-3 -8 -6 -5 -6 6 -1 11 2 17 5 13 3 -3 4 -12 1 -19z"/>
<path d="M5641 4229 c-1 -101 3 -156 10 -165 8 -10 8 -14 1 -14 -7 0 -11 -46
-11 -136 l-1 -136 30 6 c22 4 30 2 30 -9 0 -14 -14 -19 -47 -18 -9 1 -13 -20
-13 -69 0 -43 4 -67 10 -63 6 4 10 -6 9 -22 0 -25 -1 -26 -9 -8 -7 16 -9 11
-9 -22 -1 -24 4 -43 11 -45 9 -3 9 -6 0 -12 -7 -4 -12 -2 -12 3 0 6 -21 11
-50 11 -40 0 -48 -3 -44 -15 4 -10 0 -15 -16 -15 -13 0 -19 -4 -14 -12 4 -7 3
-8 -4 -4 -15 9 -15 11 4 30 14 15 12 16 -29 15 -38 -2 -45 -5 -42 -21 2 -10 0
-18 -6 -18 -5 0 -9 6 -9 14 0 21 -25 27 -116 25 l-84 -1 26 -32 c18 -20 38
-32 59 -34 38 -4 53 12 33 35 -12 15 -11 15 9 4 12 -6 20 -17 18 -24 -4 -9 27
-12 129 -14 114 -2 134 0 129 13 -3 9 2 14 17 14 14 0 20 -5 17 -13 -7 -20 32
-19 42 1 14 30 12 139 -5 152 -18 15 -18 30 -1 30 11 0 13 19 12 83 -2 119 -3
127 -20 127 -8 0 -15 7 -15 15 0 12 4 13 19 6 18 -10 19 -7 19 41 1 35 -5 59
-15 71 -16 17 -16 17 0 11 13 -5 17 -1 17 17 0 17 -3 20 -9 11 -7 -11 -10 -10
-15 3 -9 24 -8 28 9 21 12 -4 14 6 14 54 -1 54 -3 60 -22 60 -19 0 -20 1 -3
13 12 9 19 32 23 76 l6 64 -31 -5 c-22 -3 -32 0 -33 9 -3 26 -4 31 -10 37 -3
4 -7 -62 -8 -145z m30 -111 c11 -21 11 -22 -4 -9 -10 7 -17 17 -17 22 0 15 9
10 21 -13z m29 -298 c0 -11 -6 -20 -13 -20 -21 0 -27 11 -14 26 17 19 27 17
27 -6z m-285 -330 c3 -5 -1 -10 -10 -10 -9 0 -13 5 -10 10 3 6 8 10 10 10 2 0
7 -4 10 -10z"/>
<path d="M3343 4181 l-21 -6 25 -42 c14 -24 32 -43 41 -43 8 0 12 -3 9 -6 -4
-4 8 -25 26 -47 17 -21 39 -49 49 -60 13 -17 19 -19 31 -8 12 9 21 10 36 1 30
-16 26 -23 -9 -16 -35 6 -38 -3 -11 -28 18 -17 21 -17 45 -1 14 10 26 20 26
24 0 16 -84 102 -95 97 -8 -3 -11 2 -9 12 2 9 -12 35 -30 57 -34 39 -35 39
-55 21 -12 -11 -24 -16 -28 -12 -4 4 -1 11 6 15 14 9 12 43 -4 47 -5 1 -20 -1
-32 -5z"/>
<path d="M3772 4078 c-6 -6 -12 -17 -12 -24 0 -6 -6 -14 -13 -17 -8 -3 -28
-23 -45 -45 l-31 -39 24 5 c18 3 25 0 25 -12 0 -22 29 -21 37 2 4 9 14 22 22
28 13 10 13 16 3 39 -9 20 -10 31 -1 41 15 18 8 39 -9 22z"/>
<path d="M1209 4059 c-8 -15 -7 -25 2 -37 8 -9 15 -19 16 -21 1 -2 10 2 20 10
14 12 16 12 8 0 -6 -11 -4 -13 9 -8 10 4 19 7 21 7 2 0 1 9 -2 20 -3 11 0 20
6 20 6 0 11 -11 11 -25 0 -27 9 -32 28 -13 9 9 12 9 12 -1 0 -8 10 -11 28 -9
19 2 27 9 27 23 0 14 6 19 19 17 10 -2 22 1 25 6 3 5 20 14 36 20 24 8 1 11
-113 11 -132 0 -143 -2 -153 -20z m151 -11 c0 -11 -38 -10 -44 1 -3 5 5 8 19
7 14 0 25 -4 25 -8z"/>
<path d="M1558 4066 c-24 -17 -23 -26 2 -21 11 2 22 0 25 -6 4 -5 1 -9 -5 -9
-6 0 -9 -4 -5 -10 3 -5 12 -7 19 -4 8 3 17 1 21 -5 9 -16 142 -14 148 2 4 10
6 10 6 0 1 -9 17 -13 47 -13 27 0 43 4 39 10 -3 6 -2 10 4 10 5 0 13 -4 16
-10 11 -18 81 -12 99 9 33 36 1 61 -79 61 -32 0 -42 -5 -50 -22 -14 -32 -33
-33 -41 -4 l-6 26 -112 0 c-76 -1 -116 -5 -128 -14z m151 -13 c10 10 12 8 9
-7 -5 -32 -35 -44 -55 -23 -16 15 -16 19 -3 27 8 5 19 5 25 0 7 -6 16 -5 24 3z"/>
<path d="M1818 4073 c7 -3 16 -2 19 1 4 3 -2 6 -13 5 -11 0 -14 -3 -6 -6z"/>
<path d="M6389 4069 c-10 -6 -10 -9 -2 -9 7 0 10 -7 7 -15 -4 -8 -1 -15 5 -15
6 0 11 4 11 9 0 5 10 11 22 13 12 2 23 8 25 13 4 13 -50 16 -68 4z"/>
<path d="M6475 4070 c3 -5 8 -10 11 -10 2 0 4 5 4 10 0 6 -5 10 -11 10 -5 0
-7 -4 -4 -10z"/>
<path d="M6525 4064 c-16 -12 -16 -14 -3 -10 13 4 15 0 8 -22 -7 -27 -7 -27
52 -30 48 -3 62 0 74 15 12 17 13 17 14 1 0 -16 10 -18 83 -17 45 0 75 3 67 6
-8 4 -20 13 -26 22 -9 11 -15 12 -25 4 -8 -5 -21 -11 -29 -11 -8 -1 -24 -2
-35 -4 -14 -2 -21 3 -23 19 -3 20 -1 21 30 13 18 -6 40 -7 50 -4 9 3 26 0 37
-5 16 -9 18 -8 14 9 -3 11 -1 20 3 20 19 0 31 -16 30 -40 l-1 -25 144 0 c107
0 145 3 149 13 2 7 -5 12 -17 12 -12 0 -21 5 -21 10 0 6 7 10 16 8 10 -2 19 2
21 9 5 15 22 14 -312 19 -246 4 -283 2 -300 -12z m111 -7 c15 6 19 -12 5 -21
-15 -10 -41 5 -41 22 0 12 3 13 11 5 6 -6 18 -9 25 -6z m314 -22 c0 -16 -27
-32 -37 -22 -3 4 -3 13 0 22 8 20 37 20 37 0z"/>
<path d="M2313 4062 c-17 -2 -34 -10 -37 -18 -9 -23 12 -54 35 -54 11 0 17 5
14 10 -3 6 2 13 12 17 10 4 24 13 31 20 7 7 19 13 25 13 8 0 8 -3 -1 -9 -10
-6 -3 -14 26 -28 36 -17 43 -18 67 -6 30 16 71 13 68 -5 -3 -14 18 -12 29 3 5
6 8 5 8 -2 0 -7 10 -13 23 -13 20 1 21 2 5 14 -16 11 -13 13 22 13 46 0 55 6
47 28 -8 18 -57 20 -57 3 0 -10 -2 -10 -8 -1 -5 8 -47 11 -134 11 -69 0 -130
1 -134 3 -5 3 -23 3 -41 1z m154 -30 c0 -7 -7 -10 -14 -7 -8 3 -19 5 -24 5 -6
0 -8 4 -5 8 8 13 43 9 43 -6z"/>
<path d="M6451 4020 l-23 -20 37 0 c29 0 36 4 33 17 -4 24 -20 25 -47 3z"/>
<path d="M2998 4003 c7 -3 16 -2 19 1 4 3 -2 6 -13 5 -11 0 -14 -3 -6 -6z"/>
<path d="M6000 3987 c0 -10 8 -17 20 -17 11 0 20 -5 20 -11 0 -6 -9 -9 -20 -6
-15 4 -20 0 -20 -13 0 -10 8 -21 18 -23 16 -4 16 -5 0 -6 -15 -1 -18 -10 -17
-56 1 -30 5 -55 10 -55 5 0 6 6 3 13 -3 10 3 13 25 9 25 -3 30 0 35 25 4 15 6
52 5 81 -2 49 -4 52 -29 52 -14 0 -31 5 -38 12 -9 9 -12 8 -12 -5z m60 -57 c0
-5 -4 -10 -10 -10 -5 0 -10 5 -10 10 0 6 5 10 10 10 6 0 10 -4 10 -10z"/>
<path d="M342 3918 c-7 -7 -8 -17 -1 -30 15 -27 26 -22 25 12 -1 33 -6 36 -24
18z"/>
<path d="M5 3812 c1 -50 12 -71 36 -65 18 5 28 33 11 33 -5 0 -16 6 -25 13
-15 10 -11 12 28 10 24 -1 47 3 50 8 9 14 -25 23 -38 10 -15 -15 -27 -14 -27
3 0 11 -20 26 -33 26 -1 0 -2 -17 -2 -38z"/>
<path d="M165 3830 c4 -6 -5 -10 -20 -10 -14 0 -24 -4 -21 -9 3 -4 0 -22 -7
-40 -8 -22 -18 -31 -34 -31 -14 0 -23 -6 -23 -16 0 -8 -4 -13 -9 -10 -5 3 -13
0 -19 -7 -6 -8 -3 -18 11 -32 11 -11 17 -15 14 -9 -4 7 2 14 13 17 15 4 20 0
20 -14 0 -11 -5 -16 -13 -13 -7 2 -23 -4 -36 -15 -13 -11 -28 -22 -34 -24 -6
-2 -7 -9 -3 -16 7 -10 10 -10 16 -1 6 9 15 8 38 -4 39 -20 41 -20 35 4 -3 12
1 22 11 26 9 3 14 10 11 14 -3 5 -1 11 5 15 16 10 12 25 -6 25 -11 0 -14 5
-10 16 3 9 6 18 6 20 0 2 8 4 18 4 13 0 14 -2 3 -9 -10 -7 -10 -10 -1 -13 7
-2 14 -13 14 -24 1 -11 5 -25 9 -31 4 -6 3 -14 -3 -18 -6 -4 -8 -11 -4 -16 3
-5 0 -8 -8 -7 -7 2 -12 -4 -12 -14 2 -20 -69 -41 -85 -25 -6 6 -14 7 -18 3 -4
-4 -2 -11 6 -15 18 -11 14 -25 -12 -35 -17 -6 -19 -10 -7 -14 8 -3 20 -12 27
-21 11 -14 12 -11 13 17 0 17 5 33 10 33 6 1 15 2 20 3 6 0 15 8 20 16 7 11
12 12 20 4 13 -13 -12 -44 -36 -44 -15 0 -17 -57 -2 -66 14 -9 8 -24 -9 -24
-15 0 -16 -2 -3 -10 20 -13 33 -13 25 0 -3 6 1 10 10 10 8 0 18 -7 21 -15 9
-22 34 -18 34 5 0 11 7 20 15 20 8 0 15 4 15 10 0 6 16 8 37 5 28 -3 34 -2 25
7 -7 7 -12 22 -12 35 0 28 -10 29 -32 3 -10 -11 -26 -17 -38 -15 -16 3 -20 0
-16 -10 4 -11 -2 -15 -22 -15 -24 0 -28 4 -30 30 -1 17 2 30 8 30 5 0 10 -6
10 -13 0 -9 10 -12 30 -9 32 5 39 16 15 26 -19 7 -19 35 0 42 8 4 12 10 9 15
-3 5 0 9 7 9 9 0 9 3 0 14 -9 11 -8 15 5 20 22 8 26 8 19 -3 -3 -5 -2 -12 3
-15 4 -2 9 4 9 15 1 12 -5 19 -15 19 -15 1 -15 2 1 14 10 8 17 22 15 32 -5 26
19 28 33 2 11 -21 11 -22 -4 -9 -15 12 -17 11 -17 -7 0 -11 6 -25 13 -31 11
-8 16 -5 25 14 6 14 16 25 22 25 5 0 10 4 10 9 0 5 -10 7 -22 4 -13 -3 -20 -3
-17 1 4 4 19 8 34 9 20 2 29 8 31 24 2 12 -1 25 -6 28 -7 4 -7 13 0 25 8 16 7
19 -10 17 -11 -1 -20 -8 -20 -18 0 -19 -29 -79 -31 -64 -1 6 -1 15 1 20 1 6
-4 4 -11 -2 -17 -17 -29 -16 -29 1 0 16 -27 29 -42 19 -7 -3 -8 -1 -4 5 4 7 2
12 -3 12 -6 0 -11 5 -11 11 0 6 7 9 14 6 10 -4 13 -1 9 9 -4 10 3 14 23 14 31
0 24 10 -19 28 -16 7 -26 8 -22 2z m22 -157 c-3 -3 -11 -2 -17 2 -9 6 -9 10 1
16 14 8 27 -7 16 -18z"/>
<path d="M360 3816 c0 -8 -6 -17 -12 -20 -7 -3 -3 -3 10 0 14 3 22 1 22 -7 0
-7 3 -10 6 -6 8 8 -5 47 -17 47 -5 0 -9 -6 -9 -14z"/>
<path d="M6040 3783 c-32 -16 -35 -22 -38 -67 -3 -43 -1 -48 14 -42 17 6 17 6
1 -12 -19 -21 -23 -72 -6 -72 6 0 9 9 6 19 -3 12 1 22 10 25 11 4 13 1 8 -15
-4 -11 -1 -27 6 -35 16 -20 5 -28 -21 -14 -20 11 -21 10 -18 -36 2 -29 8 -49
17 -52 8 -3 11 0 7 7 -5 7 -1 9 8 5 9 -3 16 -12 16 -20 0 -17 49 -18 71 -1 25
19 34 57 14 57 -9 0 -13 -4 -10 -10 9 -14 -7 -12 -27 4 -13 9 -18 27 -18 60 0
25 -4 46 -10 46 -13 0 -13 27 1 32 6 2 9 30 7 71 l-3 67 -35 -17z m20 -33 c0
-5 -4 -10 -10 -10 -5 0 -10 5 -10 10 0 6 5 10 10 10 6 0 10 -4 10 -10z m-20
-50 c0 -5 -4 -10 -10 -10 -5 0 -10 5 -10 10 0 6 5 10 10 10 6 0 10 -4 10 -10z"/>
<path d="M220 3762 c0 -26 10 -33 25 -19 9 8 10 16 3 25 -15 18 -28 15 -28 -6z"/>
<path d="M340 3715 c0 -8 7 -15 15 -15 8 0 15 7 15 15 0 8 -7 15 -15 15 -8 0
-15 -7 -15 -15z"/>
<path d="M3010 3672 c0 -4 12 -12 26 -19 17 -8 24 -8 22 -1 -5 13 -48 31 -48
20z"/>
<path d="M3027 3616 c5 -15 3 -17 -8 -11 -12 8 -12 6 0 -8 10 -13 10 -17 1
-17 -8 0 -10 -10 -6 -34 5 -26 3 -35 -10 -40 -12 -5 -14 -9 -5 -20 6 -7 8 -16
4 -19 -3 -4 -2 -7 4 -7 12 0 27 29 24 48 -1 6 5 12 14 12 9 0 15 9 15 21 0 16
-5 20 -20 16 -11 -3 -18 -1 -14 4 3 5 12 9 20 9 19 0 17 10 -6 40 -15 18 -18
20 -13 6z"/>
<path d="M205 3570 c-8 -13 -1 -24 14 -19 6 3 7 10 2 18 -6 10 -10 10 -16 1z"/>
<path d="M2990 3530 c0 -5 5 -10 11 -10 5 0 7 5 4 10 -3 6 -8 10 -11 10 -2 0
-4 -4 -4 -10z"/>
<path d="M905 3522 c-6 -4 -12 -17 -12 -29 -1 -17 5 -23 35 -27 65 -11 203 -4
198 10 -3 8 6 7 26 -4 30 -14 58 -16 188 -12 30 1 60 1 65 0 30 -7 65 1 65 15
0 8 -6 15 -12 15 -9 0 -8 4 2 10 23 15 30 12 30 -13 0 -14 6 -24 15 -24 8 0
12 4 9 9 -3 4 2 8 10 8 9 0 16 5 16 12 0 9 3 9 12 0 7 -7 17 -12 22 -12 6 0 4
5 -4 10 -12 8 -11 10 7 10 35 0 36 17 0 23 -43 7 -188 8 -199 1 -5 -3 -1 -12
9 -20 17 -13 17 -13 -4 -14 -13 0 -28 9 -35 20 -13 21 -68 29 -68 10 0 -5 -5
-10 -11 -10 -5 0 -7 5 -4 10 4 7 -47 9 -149 8 l-154 -1 9 -24 c5 -13 9 -25 9
-26 0 -2 -12 -3 -27 -4 -24 -1 -25 0 -8 7 18 7 18 9 3 15 -9 4 -14 13 -11 21
5 15 -15 19 -32 6z m205 -12 c0 -13 -12 -19 -26 -13 -21 8 -17 19 6 19 11 0
20 -3 20 -6z m217 -22 c-3 -8 -6 -5 -6 6 -1 11 2 17 5 13 3 -3 4 -12 1 -19z
m-117 2 c0 -5 -4 -10 -9 -10 -6 0 -13 5 -16 10 -3 6 1 10 9 10 9 0 16 -4 16
-10z"/>
<path d="M6345 3520 c-3 -4 1 -11 7 -14 9 -3 8 -8 -4 -16 -20 -12 -24 -30 -7
-30 6 0 18 7 27 16 14 15 17 15 27 0 9 -12 14 -13 23 -4 9 9 12 9 12 0 0 -9
47 -12 175 -11 158 0 175 1 175 17 1 16 1 16 11 0 8 -15 25 -18 99 -18 50 0
90 4 90 9 0 5 -8 11 -17 14 -16 4 -16 5 2 13 39 18 27 34 -25 34 -33 0 -49 -4
-47 -12 3 -18 -35 -22 -45 -4 -11 20 -22 20 -42 0 -15 -14 -16 -14 -16 0 0 13
-14 16 -80 16 -52 0 -80 -4 -80 -11 0 -7 -13 -9 -37 -4 -60 11 -242 15 -248 5z
m495 -14 c0 -2 -7 -7 -16 -10 -8 -3 -12 -2 -9 4 6 10 25 14 25 6z m-200 -16
c0 -5 -5 -10 -11 -10 -5 0 -7 5 -4 10 3 6 8 10 11 10 2 0 4 -4 4 -10z"/>
<path d="M7000 3520 c0 -9 7 -23 27 -59 5 -8 93 -7 93 1 0 4 6 8 14 8 21 0 27
27 10 45 -18 17 -144 22 -144 5z"/>
<path d="M29 3443 c-13 -16 -12 -17 4 -4 9 7 17 15 17 17 0 8 -8 3 -21 -13z"/>
<path d="M36 3405 c-3 -9 0 -15 9 -15 9 0 12 6 9 15 -4 8 -7 15 -9 15 -2 0 -5
-7 -9 -15z"/>
<path d="M199 3401 c-30 -24 -16 -44 21 -29 18 7 21 11 11 17 -7 5 -10 14 -7
20 11 16 1 13 -25 -8z"/>
<path d="M246 3384 c-3 -9 -4 -20 0 -25 3 -5 -6 -9 -20 -9 -20 0 -26 -5 -26
-21 0 -15 -5 -19 -15 -15 -17 6 -21 -19 -5 -29 6 -3 10 -1 10 5 0 7 7 5 16 -4
27 -27 51 -18 45 17 0 4 13 7 29 7 18 0 33 6 36 15 4 8 10 15 16 15 5 0 7 -3
4 -8 -8 -14 21 -43 38 -36 20 8 15 40 -10 59 -22 16 -48 20 -39 5 3 -5 -1 -10
-9 -10 -9 0 -16 7 -16 15 0 8 -9 19 -19 25 -26 13 -28 13 -35 -6z"/>
<path d="M116 3371 c-3 -5 1 -11 9 -15 15 -6 29 7 18 18 -9 9 -21 8 -27 -3z"/>
<path d="M36 3348 c5 -8 0 -9 -14 -6 -15 4 -22 2 -22 -8 0 -9 8 -14 18 -12 11
2 16 -2 14 -12 -3 -11 1 -10 17 4 21 19 18 46 -6 46 -8 0 -11 -5 -7 -12z"/>
<path d="M90 3335 c0 -6 5 -16 12 -23 9 -9 7 -12 -10 -12 -22 0 -62 -32 -62
-49 0 -5 12 -11 27 -13 30 -3 41 -23 18 -32 -9 -3 -13 -2 -10 4 3 6 -3 10 -14
10 -12 0 -21 -4 -21 -10 0 -5 -7 -10 -15 -10 -10 0 -15 -10 -15 -26 0 -25 1
-26 23 -12 31 20 59 30 52 18 -3 -6 -2 -10 4 -10 6 0 13 16 17 35 3 19 11 35
16 35 6 0 8 -6 5 -13 -3 -9 6 -14 29 -15 19 -2 34 2 34 8 0 5 5 10 11 10 6 0
9 -9 6 -19 -4 -15 2 -20 29 -26 19 -3 39 -3 44 0 6 3 10 1 10 -4 0 -6 -9 -11
-19 -11 -23 0 -34 -23 -19 -38 8 -8 7 -13 -5 -18 -9 -3 -14 -10 -11 -15 3 -5
-6 -9 -20 -9 -17 0 -26 -6 -26 -15 0 -25 27 -28 49 -6 12 12 19 21 16 21 -3 0
-1 8 4 18 6 12 6 23 1 28 -5 5 3 16 20 26 30 17 30 17 30 -7 0 -13 5 -25 11
-27 9 -3 9 -9 1 -25 -8 -15 -18 -20 -33 -16 -16 4 -20 2 -17 -8 3 -8 14 -13
25 -12 11 1 20 -4 20 -12 0 -8 -5 -13 -10 -12 -5 1 -12 -4 -14 -10 -3 -8 5
-13 20 -13 37 0 46 51 21 115 -7 18 -6 18 9 6 9 -7 17 -10 17 -6 0 11 -88 95
-99 95 -5 0 -14 7 -21 15 -6 8 -24 14 -38 14 -15 0 -43 2 -63 3 -27 3 -35 0
-32 -9 6 -16 -13 -17 -22 -2 -4 6 -13 8 -21 5 -8 -3 -11 0 -7 9 3 10 16 13 39
10 20 -2 34 0 34 7 0 6 9 8 20 5 15 -4 20 0 20 14 0 16 -4 18 -17 11 -12 -7
-21 -4 -34 12 -10 11 -18 16 -19 11z m141 -128 c-13 -13 -26 -3 -16 12 3 6 11
8 17 5 6 -4 6 -10 -1 -17z"/>
<path d="M279 3293 c-25 -6 -12 -35 27 -61 20 -13 34 -26 31 -29 -7 -6 30 -43
43 -43 6 0 10 5 10 10 0 6 -7 10 -15 10 -8 0 -15 2 -15 4 0 2 -3 11 -6 20 -3
9 -1 16 6 16 6 0 8 -4 5 -10 -3 -5 1 -10 9 -10 19 0 21 36 4 44 -10 5 -10 7 0
12 6 3 12 10 12 15 0 10 -41 -10 -52 -26 -5 -6 -8 -5 -8 3 0 7 -5 10 -12 6 -6
-4 -8 -3 -5 4 8 11 -1 43 -12 41 -3 -1 -13 -3 -22 -6z"/>
<path d="M103 3153 c-18 -9 -33 -24 -33 -32 0 -12 2 -13 8 -4 5 7 20 14 35 15
18 2 27 8 27 20 0 10 -1 18 -2 17 -2 0 -18 -8 -35 -16z"/>
<path d="M17 3122 c-22 -25 -21 -39 3 -45 23 -6 26 3 8 21 -9 9 -7 12 10 12
15 0 20 5 16 15 -8 20 -17 19 -37 -3z"/>
<path d="M158 3113 c7 -3 16 -2 19 1 4 3 -2 6 -13 5 -11 0 -14 -3 -6 -6z"/>
<path d="M365 3050 c-4 -6 -3 -16 3 -22 6 -6 12 -6 17 2 4 6 3 16 -3 22 -6 6
-12 6 -17 -2z"/>
<path d="M3 3017 c-3 -5 -1 -13 4 -18 5 -5 13 -1 20 10 9 14 8 18 -3 18 -8 0
-17 -4 -21 -10z"/>
<path d="M200 3020 c0 -5 4 -10 9 -10 6 0 13 5 16 10 3 6 -1 10 -9 10 -9 0
-16 -4 -16 -10z"/>
<path d="M110 2980 c0 -13 5 -18 15 -14 8 4 15 12 15 20 0 8 -7 14 -15 14 -8
0 -15 -9 -15 -20z"/>
<path d="M304 2974 c4 -9 1 -23 -6 -31 -9 -11 -9 -16 3 -24 16 -10 31 -7 29 6
-1 5 7 12 17 16 17 7 17 8 -1 8 -15 1 -17 4 -9 12 8 8 17 8 32 0 17 -9 21 -9
21 2 0 8 -14 17 -31 21 -50 10 -62 8 -55 -10z"/>
<path d="M226 2971 c-3 -5 1 -14 8 -20 16 -13 32 2 21 19 -8 12 -22 13 -29 1z"/>
<path d="M195 2930 c-3 -5 -1 -10 4 -10 6 0 11 5 11 10 0 6 -2 10 -4 10 -3 0
-8 -4 -11 -10z"/>
<path d="M370 2915 c0 -8 5 -15 10 -15 6 0 10 7 10 15 0 8 -4 15 -10 15 -5 0
-10 -7 -10 -15z"/>
<path d="M128 2893 c-10 -2 -18 -9 -18 -14 0 -6 5 -7 10 -4 6 3 10 -1 10 -9 0
-8 -4 -18 -10 -21 -5 -3 -10 -10 -10 -16 0 -5 9 -4 19 3 10 6 17 17 14 24 -2
6 0 15 6 19 12 7 15 26 4 24 -5 -1 -16 -3 -25 -6z"/>
<path d="M230 2892 c0 -4 -12 -15 -27 -24 -16 -10 -22 -18 -15 -18 6 0 12 -7
12 -15 0 -9 -6 -12 -15 -8 -9 3 -15 2 -14 -3 6 -32 -2 -41 -33 -38 -17 2 -35
10 -40 17 -5 7 -8 2 -8 -15 0 -15 5 -30 10 -33 6 -3 10 -1 10 4 0 6 5 11 11
11 5 0 8 -4 5 -9 -4 -5 0 -12 6 -14 10 -4 10 -6 0 -6 -7 -1 -10 -6 -7 -11 4
-6 12 -7 18 -3 24 15 42 11 66 -14 15 -15 20 -23 12 -18 -9 5 -12 4 -8 -2 6
-9 42 -10 95 -2 6 1 12 8 12 16 0 7 6 13 14 13 8 0 17 7 20 16 3 8 10 12 16 9
5 -3 10 -1 10 5 0 6 -8 10 -17 8 -14 -2 -18 5 -20 30 -1 29 1 31 14 20 14 -11
15 -9 9 20 -6 25 -4 32 8 32 9 0 16 8 16 17 0 13 -3 14 -12 5 -7 -7 -21 -12
-31 -12 -17 0 -18 -2 -6 -17 13 -15 12 -15 -9 -2 -20 12 -24 12 -32 -1 -7 -10
-10 -11 -10 -2 0 10 -7 9 -30 -3 -44 -23 -51 -18 -29 20 12 20 16 35 10 35 -6
0 -11 -3 -11 -8z m66 -74 c-8 13 3 16 21 4 7 -4 10 -17 7 -28 -5 -19 -10 -20
-52 -13 -26 4 -53 8 -59 8 -7 1 -13 7 -13 15 0 18 68 26 89 11 11 -7 13 -7 7
3z m-76 -68 c0 -5 -4 -10 -10 -10 -5 0 -10 5 -10 10 0 6 5 10 10 10 6 0 10 -4
10 -10z"/>
<path d="M78 2883 c7 -3 16 -2 19 1 4 3 -2 6 -13 5 -11 0 -14 -3 -6 -6z"/>
<path d="M63 2667 c2 -7 -9 -20 -25 -29 -15 -10 -28 -22 -28 -28 0 -15 26 -12
40 5 8 10 25 13 61 9 46 -4 49 -3 41 13 -5 10 -7 23 -5 29 2 7 -13 12 -42 12
-32 1 -45 -2 -42 -11z m47 -27 c0 -5 -2 -10 -4 -10 -3 0 -8 5 -11 10 -3 6 -1
10 4 10 6 0 11 -4 11 -10z"/>
<path d="M172 2665 c-11 -13 -9 -15 13 -15 14 0 24 -4 21 -9 -3 -5 1 -12 10
-15 23 -9 26 -8 18 7 -4 6 -3 9 1 4 5 -4 9 -17 10 -28 2 -24 -33 -42 -103 -54
-42 -7 -69 -34 -64 -62 2 -7 -4 -13 -13 -13 -9 0 -13 5 -10 10 3 6 0 10 -9 10
-8 0 -21 3 -30 6 -14 5 -16 -5 -16 -72 0 -76 1 -79 27 -91 36 -17 40 -16 46 7
7 28 19 25 40 -11 17 -30 17 -32 0 -45 -13 -10 -14 -13 -4 -14 8 0 11 -3 8 -6
-4 -4 -13 -1 -21 5 -8 7 -20 10 -26 6 -5 -3 -10 -2 -10 3 0 6 -13 15 -29 20
l-29 10 0 -69 c-1 -38 3 -69 7 -69 5 0 12 -11 15 -25 5 -18 13 -25 31 -25 13
0 27 5 31 12 5 8 1 9 -12 5 -18 -7 -18 -6 -1 7 22 17 68 9 60 -11 -3 -8 -12
-12 -19 -9 -8 3 -14 1 -14 -4 0 -6 5 -10 10 -10 6 0 8 -10 5 -23 -5 -18 -2
-23 15 -24 11 -1 18 2 15 7 -3 5 -1 11 5 15 5 3 10 0 10 -8 0 -31 26 -39 77
-24 36 11 44 17 30 22 -9 4 -28 4 -41 1 -16 -4 -29 1 -41 15 -11 11 -25 17
-32 15 -15 -6 -14 24 1 35 5 4 -1 10 -13 14 -19 6 -19 8 -6 21 19 20 19 31 0
31 -8 0 -15 -6 -15 -14 0 -7 -7 -13 -15 -13 -12 0 -14 7 -9 28 3 15 2 22 -3
16 -4 -6 -23 -14 -40 -17 -25 -5 -33 -3 -33 8 0 8 8 15 18 16 10 0 12 3 5 6
-7 2 -13 11 -13 18 0 10 9 11 42 2 24 -6 45 -13 48 -16 3 -3 12 -7 21 -9 12
-2 16 4 14 21 -3 26 10 55 20 45 4 -3 2 -15 -3 -25 -7 -12 -7 -25 -1 -34 6
-10 9 -7 9 13 0 21 4 26 20 23 11 -2 25 -7 32 -11 7 -5 8 -3 3 6 -5 9 -2 10
13 6 26 -9 36 16 16 41 -14 17 -14 16 -4 -4 10 -21 8 -23 -20 -23 -32 0 -45
29 -12 31 10 0 12 3 5 6 -21 8 -15 20 10 18 12 -1 33 -3 47 -4 20 -1 22 -3 10
-11 -12 -8 -10 -10 8 -10 13 0 20 4 17 10 -4 6 5 10 19 10 14 0 26 -4 26 -10
0 -5 -7 -10 -15 -10 -17 0 -20 -16 -5 -25 6 -3 10 -1 10 5 0 6 5 8 10 5 8 -5
7 -11 -1 -21 -10 -12 -9 -13 5 -8 17 7 17 24 -3 104 -7 25 -9 29 -10 12 -1
-13 -5 -21 -10 -17 -5 3 -13 0 -16 -6 -4 -5 -14 -8 -23 -4 -8 3 -19 0 -24 -7
-7 -10 -13 -7 -26 11 -9 13 -29 37 -45 52 -34 34 -28 49 19 49 21 0 33 4 29
10 -3 6 1 10 10 10 10 0 13 -5 9 -11 -5 -8 1 -10 18 -7 20 4 24 1 23 -16 -1
-14 -13 -23 -41 -32 -21 -6 -33 -12 -26 -13 6 -1 12 -10 12 -21 0 -11 5 -20
11 -20 5 0 7 5 3 11 -4 8 0 9 15 4 14 -4 23 -1 27 9 3 9 11 13 17 9 6 -3 7 -1
3 5 -4 7 -2 20 3 29 7 11 11 13 11 5 0 -10 4 -9 17 3 9 9 12 20 7 23 -5 4 -9
13 -10 20 -2 30 -5 33 -26 30 -11 -2 -23 3 -25 10 -3 7 4 12 15 12 12 0 22 9
26 23 8 32 8 37 -8 37 -7 0 -19 6 -25 14 -10 12 -9 13 8 9 13 -3 23 2 30 16
11 20 9 21 -33 21 -25 0 -48 -5 -51 -10 -4 -6 -11 -7 -17 -4 -7 4 -8 2 -4 -4
4 -7 2 -12 -3 -12 -6 0 -11 7 -11 15 0 8 -9 15 -19 15 -11 0 -25 2 -33 5 -7 2
-19 -2 -26 -10z m125 -41 c-3 -4 3 -18 13 -32 15 -19 17 -28 9 -38 -16 -20
-29 -8 -29 27 0 19 -5 29 -15 29 -8 0 -15 5 -15 10 0 6 10 10 22 10 12 0 18
-3 15 -6z m-127 -84 c0 -5 -4 -10 -10 -10 -5 0 -10 5 -10 10 0 6 5 10 10 10 6
0 10 -4 10 -10z m90 -4 c0 -15 -18 -31 -26 -23 -7 7 7 37 17 37 5 0 9 -6 9
-14z m17 -8 c-3 -8 -6 -5 -6 6 -1 11 2 17 5 13 3 -3 4 -12 1 -19z m-72 -24 c0
-21 -36 -27 -42 -6 -3 6 3 12 12 12 9 0 13 5 9 11 -4 7 -1 10 7 7 8 -3 14 -13
14 -24z m-100 -14 c-3 -5 -1 -10 4 -10 6 0 11 5 11 10 0 6 8 10 18 10 15 -1
15 -2 1 -13 -11 -9 -14 -24 -11 -56 3 -29 0 -46 -9 -53 -10 -6 -3 -8 20 -6 26
2 34 -1 37 -14 1 -10 -4 -19 -12 -19 -8 -1 -18 -2 -24 -3 -5 -1 -11 4 -12 9
-2 17 -32 34 -60 35 -16 0 -28 5 -28 10 0 6 4 10 8 10 5 0 17 7 28 15 16 13
16 14 2 9 -10 -3 -18 -1 -18 5 0 6 6 11 13 12 9 0 9 2 0 6 -10 3 -8 11 5 28
16 23 40 36 27 15z m-65 -16 c0 -8 -4 -12 -10 -9 -5 3 -10 10 -10 16 0 5 5 9
10 9 6 0 10 -7 10 -16z m119 -23 c-15 -5 -22 6 -14 19 6 9 10 9 16 -1 5 -8 4
-15 -2 -18z m-108 -14 c-11 -11 -41 -3 -41 11 0 5 12 7 26 4 17 -3 22 -8 15
-15z m125 -5 c15 -10 14 -42 -1 -42 -18 0 -38 27 -30 40 7 12 16 13 31 2z
m-146 -22 c0 -5 -4 -10 -10 -10 -5 0 -10 5 -10 10 0 6 5 10 10 10 6 0 10 -4
10 -10z m25 -50 c-3 -5 -10 -10 -16 -10 -5 0 -9 5 -9 10 0 6 7 10 16 10 8 0
12 -4 9 -10z m155 -10 c0 -5 -4 -10 -10 -10 -5 0 -10 5 -10 10 0 6 5 10 10 10
6 0 10 -4 10 -10z m-150 -182 c0 -5 -7 -8 -15 -8 -15 0 -20 21 -8 33 7 7 23
-11 23 -25z m20 22 c0 -5 -2 -10 -4 -10 -3 0 -8 5 -11 10 -3 6 -1 10 4 10 6 0
11 -4 11 -10z"/>
<path d="M90 2466 c0 -9 5 -16 10 -16 6 0 10 4 10 9 0 6 -4 13 -10 16 -5 3
-10 -1 -10 -9z"/>
<path d="M7592 2650 c0 -14 2 -19 5 -12 2 6 2 18 0 25 -3 6 -5 1 -5 -13z"/>
<path d="M12 2555 c-11 -13 -10 -15 7 -15 10 0 21 7 25 15 7 19 -15 19 -32 0z"/>
<path d="M7590 2340 c0 -5 5 -10 11 -10 5 0 7 5 4 10 -3 6 -8 10 -11 10 -2 0
-4 -4 -4 -10z"/>
<path d="M282 2293 c-7 -12 -7 -25 -1 -34 14 -22 11 -29 -15 -29 -13 0 -27 -7
-30 -16 -7 -19 -8 -17 21 -33 29 -15 32 -14 26 9 -3 11 0 20 6 20 6 0 11 7 11
16 0 14 3 14 15 4 20 -17 19 -30 -4 -30 -14 0 -18 -7 -17 -30 0 -17 6 -30 13
-30 7 0 13 -7 13 -15 0 -8 -3 -15 -6 -15 -10 0 -34 28 -34 39 0 15 -27 14 -33
-1 -4 -10 -8 -10 -15 1 -7 10 -11 10 -17 1 -8 -13 11 -30 32 -30 14 0 63 -47
63 -60 0 -6 5 -10 10 -10 13 0 13 13 -2 28 -9 9 -6 14 13 21 54 20 62 -34 9
-60 -21 -10 -29 -19 -21 -23 6 -4 9 -12 6 -17 -10 -15 22 -10 38 6 8 8 17 11
21 8 3 -4 6 24 6 60 0 53 -3 67 -15 67 -18 0 -15 42 3 48 7 2 12 12 12 21 0
13 -7 18 -27 17 -21 -1 -30 7 -48 43 -21 40 -24 42 -33 24z"/>
<path d="M205 2250 c-18 -8 -17 -9 8 -9 16 -1 26 3 22 9 -3 6 -7 10 -8 9 -1 0
-11 -4 -22 -9z"/>
<path d="M127 2033 c-4 -3 -7 -18 -7 -31 0 -31 7 -26 14 11 5 28 4 31 -7 20z"/>
<path d="M270 2030 c-14 -4 -20 -9 -15 -10 6 -1 17 -3 26 -5 9 -1 16 4 16 11
0 8 -1 14 -1 13 -1 -1 -12 -5 -26 -9z"/>
<path d="M90 1990 c0 -5 5 -10 11 -10 5 0 7 5 4 10 -3 6 -8 10 -11 10 -2 0 -4
-4 -4 -10z"/>
<path d="M141 1983 c0 -12 5 -23 12 -26 9 -3 7 -10 -5 -23 -10 -10 -18 -14
-18 -8 0 6 -6 11 -12 12 -49 4 -65 8 -77 20 -12 12 -16 10 -26 -15 -9 -20 -9
-35 -1 -52 8 -18 8 -25 -2 -29 -13 -4 -17 -52 -4 -52 4 0 14 6 20 12 10 10 15
10 22 -2 7 -10 10 -11 10 -2 0 6 5 12 10 12 6 0 10 -9 10 -20 0 -13 -7 -20
-19 -20 -13 0 -24 -11 -32 -35 -7 -19 -17 -35 -21 -35 -4 0 -8 -11 -8 -24 0
-21 4 -24 31 -22 18 1 48 -6 68 -16 19 -10 28 -18 19 -18 -25 0 -29 -15 -7
-28 10 -7 18 -9 17 -5 -4 14 23 54 32 48 6 -3 7 0 5 7 -8 20 -63 39 -68 24 -6
-17 -54 12 -61 38 -5 20 -5 20 9 2 8 -11 18 -17 22 -13 3 4 -2 16 -11 26 -17
19 -14 47 4 36 4 -3 13 2 20 10 7 8 17 12 22 9 6 -4 5 -10 -3 -16 -11 -6 -9
-8 6 -6 11 2 19 -2 18 -9 -1 -6 4 -14 12 -17 19 -7 19 8 0 24 -12 10 -12 15 1
35 14 22 14 24 -6 30 -12 4 -19 13 -17 20 3 7 1 17 -5 23 -14 14 33 37 56 29
22 -9 20 -22 -4 -24 -11 -1 -18 2 -15 8 4 5 2 9 -4 9 -18 0 -22 -20 -7 -35 8
-8 16 -11 18 -6 5 13 68 0 68 -14 0 -15 22 -25 56 -25 20 0 24 5 24 31 0 19 4
28 11 24 6 -4 10 -1 8 6 -1 8 -1 23 1 34 1 19 2 19 9 2 4 -10 11 -18 16 -17 6
1 12 -9 15 -21 10 -41 30 -34 30 10 0 34 -4 43 -29 55 -16 9 -31 12 -35 9 -3
-4 -6 0 -6 8 0 12 -2 11 -10 -1 -5 -8 -7 -25 -3 -37 4 -17 1 -23 -11 -23 -18
0 -21 22 -7 48 6 11 4 21 -5 30 -12 11 -14 6 -14 -31 0 -42 -2 -44 -27 -43
-20 1 -32 9 -42 30 -7 16 -22 31 -32 33 -10 3 -20 12 -22 22 -3 11 -5 10 -6
-6z m-111 -143 c0 -5 -4 -10 -10 -10 -5 0 -10 5 -10 10 0 6 5 10 10 10 6 0 10
-4 10 -10z m88 -26 c10 -7 11 -13 4 -18 -13 -8 -44 33 -35 48 4 6 8 4 11 -4 3
-8 12 -20 20 -26z m12 -144 c0 -5 -4 -10 -9 -10 -6 0 -13 5 -16 10 -3 6 1 10
9 10 9 0 16 -4 16 -10z"/>
<path d="M327 1830 c17 -13 19 -20 10 -30 -8 -9 -8 -11 -1 -7 7 4 14 -3 17
-15 9 -33 15 -18 10 24 -4 29 -10 37 -31 41 l-27 5 22 -18z"/>
<path d="M377 1827 c-3 -8 -2 -20 3 -26 5 -9 8 -4 8 13 0 29 -3 32 -11 13z"/>
<path d="M7780 1819 c0 -5 5 -7 10 -4 6 3 10 8 10 11 0 2 -4 4 -10 4 -5 0 -10
-5 -10 -11z"/>
<path d="M180 1794 c0 -14 -3 -14 -15 -4 -16 13 -20 3 -7 -15 7 -11 62 -15 62
-5 -1 9 -27 40 -34 40 -3 0 -6 -7 -6 -16z"/>
<path d="M8 1793 c7 -3 16 -2 19 1 4 3 -2 6 -13 5 -11 0 -14 -3 -6 -6z"/>
<path d="M7855 1770 c-3 -5 -1 -10 4 -10 6 0 11 5 11 10 0 6 -2 10 -4 10 -3 0
-8 -4 -11 -10z"/>
<path d="M240 1752 c0 -5 10 -14 23 -19 25 -12 62 1 52 18 -8 11 -75 12 -75 1z"/>
<path d="M95 1740 c-5 -8 -10 -21 -12 -29 -1 -11 2 -11 14 2 8 8 13 21 11 28
-3 10 -6 10 -13 -1z"/>
<path d="M165 1730 c-4 -6 3 -10 15 -10 12 0 19 -4 16 -8 -3 -5 1 -9 9 -9 23
0 18 13 -10 25 -15 7 -27 8 -30 2z"/>
<path d="M7825 1690 c3 -5 13 -10 21 -10 8 0 14 5 14 10 0 6 -9 10 -21 10 -11
0 -17 -4 -14 -10z"/>
<path d="M267 1663 c-4 -3 1 -12 10 -18 14 -10 15 -16 5 -27 -9 -12 -9 -15 3
-15 19 0 20 41 2 56 -8 6 -17 8 -20 4z"/>
<path d="M17 1637 c-3 -9 -2 -17 3 -17 6 0 10 -7 10 -15 0 -10 11 -15 35 -15
19 0 35 5 35 10 0 6 -11 10 -24 10 -13 0 -30 10 -38 22 -13 19 -15 20 -21 5z"/>
<path d="M7838 1623 c7 -3 16 -2 19 1 4 3 -2 6 -13 5 -11 0 -14 -3 -6 -6z"/>
<path d="M7590 1585 c0 -16 4 -23 13 -19 8 3 18 -6 25 -20 9 -20 17 -24 55
-23 50 1 56 22 8 34 -14 3 -39 17 -54 30 -36 29 -47 29 -47 -2z"/>
<path d="M160 1575 c0 -8 7 -15 16 -15 14 0 14 3 4 15 -7 8 -14 15 -16 15 -2
0 -4 -7 -4 -15z"/>
<path d="M215 1576 c3 -11 0 -23 -7 -28 -8 -5 -1 -8 20 -8 17 0 32 5 32 10 0
6 -7 10 -15 10 -7 0 -19 8 -25 18 -11 16 -11 15 -5 -2z"/>
<path d="M47 1573 c-4 -3 -7 -19 -7 -34 0 -18 -7 -32 -20 -39 -23 -12 -27 -50
-5 -50 18 0 19 11 2 29 -8 10 -8 12 0 7 6 -3 14 -2 18 4 3 5 17 10 31 10 14 0
23 -4 20 -9 -7 -11 32 -47 41 -38 3 4 -1 15 -11 26 -9 10 -16 25 -14 32 2 9
-6 14 -21 14 -31 0 -40 25 -11 32 16 4 18 8 8 14 -16 11 -23 11 -31 2z"/>
<path d="M110 1570 c0 -5 5 -10 11 -10 5 0 7 5 4 10 -3 6 -8 10 -11 10 -2 0
-4 -4 -4 -10z"/>
<path d="M305 1534 c-13 -31 -13 -54 1 -54 7 0 15 6 17 13 4 10 6 10 6 0 1
-15 21 -18 21 -4 0 5 -6 16 -13 23 -8 7 -16 20 -19 28 -3 11 -6 9 -13 -6z"/>
<path d="M7752 1538 c5 -15 28 -23 28 -10 0 5 -7 13 -16 16 -10 4 -14 1 -12
-6z"/>
<path d="M7800 1525 c0 -12 27 -63 42 -79 16 -18 18 -18 18 -3 0 10 -7 20 -15
23 -8 4 -15 10 -15 15 0 6 8 6 19 0 10 -6 22 -7 26 -3 5 4 5 1 1 -5 -10 -18
19 -16 34 2 6 8 10 22 7 32 -4 14 -5 14 -6 -4 0 -12 -6 -25 -11 -28 -6 -4 -9
-1 -8 7 2 8 -5 12 -19 11 -13 -2 -22 2 -20 8 1 7 -10 15 -25 20 -16 4 -28 6
-28 4z"/>
<path d="M7590 1473 c0 -19 4 -23 19 -18 11 3 23 0 27 -6 5 -9 11 -7 22 7 10
13 16 15 19 7 5 -14 33 -18 33 -5 -1 22 -29 37 -72 38 -45 1 -48 0 -48 -23z"/>
<path d="M40 1476 c0 -2 7 -7 16 -10 8 -3 12 -2 9 4 -6 10 -25 14 -25 6z"/>
<path d="M140 1442 c0 -35 3 -40 20 -37 11 2 26 -2 34 -10 7 -8 17 -11 20 -7
18 17 74 10 101 -14 32 -28 41 -29 60 -10 12 11 10 14 -10 14 -12 0 -39 12
-59 27 -20 15 -42 25 -51 21 -14 -5 -71 21 -102 46 -10 8 -13 1 -13 -30z"/>
<path d="M251 1463 c0 -11 3 -13 6 -6 3 10 8 9 20 -3 19 -19 30 -10 13 11 -17
20 -40 19 -39 -2z"/>
<path d="M353 1463 c-20 -4 -35 -25 -15 -22 22 4 32 -3 32 -21 0 -11 5 -20 10
-20 6 0 10 16 10 35 0 19 -3 34 -7 34 -5 -1 -18 -4 -30 -6z"/>
<path d="M7610 1415 c0 -8 5 -15 10 -15 6 0 10 7 10 15 0 8 -4 15 -10 15 -5 0
-10 -7 -10 -15z"/>
<path d="M100 1410 c0 -5 4 -10 9 -10 6 0 13 5 16 10 3 6 -1 10 -9 10 -9 0
-16 -4 -16 -10z"/>
<path d="M7875 1398 c4 -13 12 -27 17 -33 6 -6 7 -4 3 7 -5 12 -1 20 10 24 13
5 14 9 3 15 -25 16 -40 10 -33 -13z"/>
<path d="M7720 1392 c0 -14 11 -21 26 -15 21 8 17 23 -6 23 -11 0 -20 -4 -20
-8z"/>
<path d="M0 1385 c0 -2 7 -8 15 -15 12 -10 15 -10 15 2 0 8 -7 15 -15 15 -8 0
-15 -1 -15 -2z"/>
<path d="M110 1381 c0 -6 5 -13 10 -16 6 -3 10 1 10 9 0 9 -4 16 -10 16 -5 0
-10 -4 -10 -9z"/>
<path d="M196 1371 c-12 -5 -16 -10 -9 -14 13 -8 43 2 43 14 0 10 -8 10 -34 0z"/>
<path d="M290 1366 c0 -2 8 -10 18 -17 15 -13 16 -12 3 4 -13 16 -21 21 -21
13z"/>
<path d="M56 1352 c-3 -6 -1 -14 5 -17 14 -9 20 -2 10 14 -6 8 -11 9 -15 3z"/>
<path d="M215 1340 c3 -5 11 -10 16 -10 6 0 7 5 4 10 -3 6 -11 10 -16 10 -6 0
-7 -4 -4 -10z"/>
<path d="M163 1323 c9 -2 23 -2 30 0 6 3 -1 5 -18 5 -16 0 -22 -2 -12 -5z"/>
<path d="M7604 1308 c3 -13 6 -29 6 -35 0 -7 11 -13 25 -13 14 0 25 5 25 10 0
6 -4 10 -8 10 -5 0 -14 11 -20 25 -15 32 -37 34 -28 3z"/>
<path d="M7760 1315 c0 -9 9 -15 24 -15 30 0 42 15 20 24 -27 10 -44 7 -44 -9z"/>
<path d="M338 1303 c-4 -13 1 -18 16 -18 14 0 22 6 22 18 0 9 -8 17 -17 17 -9
0 -19 -8 -21 -17z"/>
<path d="M25 1300 c-3 -5 -1 -10 4 -10 6 0 11 5 11 10 0 6 -2 10 -4 10 -3 0
-8 -4 -11 -10z"/>
<path d="M7986 1285 c4 -8 13 -15 21 -15 13 0 13 3 3 15 -7 8 -16 15 -21 15
-5 0 -6 -7 -3 -15z"/>
<path d="M7680 1261 c0 -30 11 -51 26 -51 16 0 19 36 4 45 -6 4 -8 11 -5 16 4
5 -1 9 -9 9 -9 0 -16 -8 -16 -19z"/>
<path d="M7855 1261 c3 -6 -3 -14 -12 -20 -15 -9 -12 -10 17 -11 19 0 42 4 50
10 11 7 9 11 -13 19 -35 14 -50 14 -42 2z"/>
<path d="M7940 1260 c-8 -5 -12 -11 -9 -14 3 -3 14 1 25 9 21 16 8 20 -16 5z"/>
<path d="M250 1250 c0 -5 5 -10 10 -10 6 0 10 5 10 10 0 6 -4 10 -10 10 -5 0
-10 -4 -10 -10z"/>
<path d="M8020 1247 c0 -20 38 -57 60 -57 15 0 20 -7 20 -26 0 -23 -3 -25 -30
-19 -19 4 -30 3 -30 -5 0 -17 26 -23 50 -10 16 9 25 9 36 -1 9 -7 14 -8 14 -1
0 6 -6 12 -12 15 -10 4 -10 7 0 18 15 16 16 65 2 74 -6 4 -28 8 -49 10 -21 1
-44 6 -50 9 -6 4 -11 1 -11 -7z"/>
<path d="M155 1210 c-3 -5 3 -10 14 -10 12 0 21 -6 21 -14 0 -19 14 -28 34
-20 24 9 19 23 -6 17 -23 -5 -23 -5 -3 11 20 17 20 17 -2 11 -12 -3 -24 -1
-28 5 -8 13 -22 13 -30 0z"/>
<path d="M40 1206 c0 -2 7 -7 16 -10 8 -3 12 -2 9 4 -6 10 -25 14 -25 6z"/>
<path d="M342 1196 c7 -8 16 -12 21 -9 11 7 -2 23 -19 23 -12 0 -12 -2 -2 -14z"/>
<path d="M7753 1171 c0 -19 6 -31 13 -31 23 0 27 22 7 42 -20 19 -20 19 -20
-11z"/>
<path d="M7834 1173 c2 -15 8 -29 13 -30 15 -5 24 40 10 49 -21 13 -26 9 -23
-19z"/>
<path d="M7907 1173 c-14 -4 -16 -8 -6 -19 16 -20 51 -18 47 3 -3 18 -14 23
-41 16z"/>
<path d="M290 1160 c0 -8 -9 -11 -24 -8 -32 6 -40 -15 -15 -38 17 -15 23 -13
20 8 0 3 14 10 31 13 36 8 70 35 44 35 -8 0 -18 -5 -21 -10 -5 -8 -11 -7 -21
1 -11 9 -14 9 -14 -1z"/>
<path d="M7590 1150 c0 -5 5 -10 10 -10 6 0 10 5 10 10 0 6 -4 10 -10 10 -5 0
-10 -4 -10 -10z"/>
<path d="M7980 1150 c11 -7 11 -10 2 -10 -7 0 -10 -4 -7 -10 3 -5 16 -10 27
-10 20 0 21 1 3 20 -10 11 -23 20 -29 20 -6 0 -4 -5 4 -10z"/>
<path d="M7676 1134 c-8 -22 -3 -26 24 -22 22 3 22 3 2 21 -18 17 -20 17 -26
1z"/>
<path d="M333 1114 c-16 -16 -18 -24 -9 -27 7 -3 19 -1 26 3 9 6 18 3 27 -8
11 -16 12 -16 13 1 0 9 -8 25 -18 35 -17 17 -19 17 -39 -4z"/>
<path d="M7800 1101 c0 -14 18 -23 31 -15 8 4 7 9 -2 15 -18 11 -29 11 -29 0z"/>
<path d="M8095 1100 c-3 -5 1 -10 10 -10 9 0 13 5 10 10 -3 6 -8 10 -10 10 -2
0 -7 -4 -10 -10z"/>
<path d="M72 1091 c-11 -7 -10 -10 3 -15 23 -9 25 -8 25 9 0 17 -9 19 -28 6z"/>
<path d="M30 1075 c7 -8 20 -15 28 -15 13 0 12 3 -4 15 -25 19 -40 19 -24 0z"/>
<path d="M8122 1068 c-17 -17 -15 -48 2 -48 10 0 14 10 14 30 -1 35 0 34 -16
18z"/>
<path d="M311 1052 c1 -4 1 -14 0 -22 -1 -13 -2 -13 -11 0 -8 13 -10 12 -10
-4 0 -12 -5 -16 -16 -12 -8 3 -12 2 -9 -4 3 -6 16 -10 29 -10 12 0 31 -7 42
-15 24 -18 57 -20 51 -2 -2 6 -12 12 -23 12 -13 0 -20 8 -22 27 -2 14 -10 29
-17 32 -8 3 -14 2 -14 -2z"/>
<path d="M7740 1040 c0 -5 7 -10 15 -10 8 0 15 5 15 10 0 6 -7 10 -15 10 -8 0
-15 -4 -15 -10z"/>
<path d="M90 1021 c5 -11 14 -22 19 -25 11 -7 47 32 38 41 -4 3 -7 1 -7 -5 0
-7 -9 -12 -20 -12 -11 0 -20 5 -20 10 0 6 -5 10 -10 10 -7 0 -7 -6 0 -19z"/>
<path d="M160 1030 c0 -5 4 -10 9 -10 5 0 16 -3 25 -6 11 -4 16 -1 16 10 0 10
-9 16 -25 16 -14 0 -25 -4 -25 -10z"/>
<path d="M7810 1025 c7 -8 19 -15 27 -15 13 0 13 3 3 15 -7 8 -19 15 -27 15
-13 0 -13 -3 -3 -15z"/>
<path d="M7600 1010 c0 -5 7 -10 16 -10 8 0 12 5 9 10 -3 6 -10 10 -16 10 -5
0 -9 -4 -9 -10z"/>
<path d="M40 991 c0 -25 6 -27 13 -6 4 8 2 17 -3 20 -6 4 -10 -3 -10 -14z"/>
<path d="M141 985 c0 -5 3 -16 8 -23 7 -11 9 -10 14 3 4 9 3 14 -2 10 -5 -3
-12 1 -14 7 -3 7 -6 9 -6 3z"/>
<path d="M230 980 c0 -5 10 -10 23 -10 18 0 19 2 7 10 -19 13 -30 13 -30 0z"/>
<path d="M8 973 c7 -3 16 -2 19 1 4 3 -2 6 -13 5 -11 0 -14 -3 -6 -6z"/>
<path d="M320 965 c11 -14 60 -26 60 -16 0 3 -16 11 -35 17 -28 9 -33 8 -25
-1z"/>
<path d="M7708 973 c7 -3 16 -2 19 1 4 3 -2 6 -13 5 -11 0 -14 -3 -6 -6z"/>
<path d="M0 920 c0 -6 7 -10 15 -10 8 0 15 2 15 4 0 2 -7 6 -15 10 -8 3 -15 1
-15 -4z"/>
<path d="M7782 919 c2 -7 10 -15 17 -17 8 -3 12 1 9 9 -2 7 -10 15 -17 17 -8
3 -12 -1 -9 -9z"/>
<path d="M123 893 c-3 -10 -8 -21 -10 -25 -2 -5 0 -8 4 -8 14 0 34 38 23 45
-6 4 -13 -2 -17 -12z"/>
<path d="M305 900 c4 -6 11 -8 16 -5 14 9 11 15 -7 15 -8 0 -12 -5 -9 -10z"/>
<path d="M196 888 c3 -4 9 -8 15 -8 5 0 9 4 9 8 0 5 -7 9 -15 9 -8 0 -12 -4
-9 -9z"/>
<path d="M230 890 c0 -5 4 -10 9 -10 6 0 13 5 16 10 3 6 -1 10 -9 10 -9 0 -16
-4 -16 -10z"/>
<path d="M325 860 c-3 -5 1 -10 9 -10 9 0 16 5 16 10 0 6 -4 10 -9 10 -6 0
-13 -4 -16 -10z"/>
<path d="M62 820 c0 -14 2 -19 5 -12 2 6 2 18 0 25 -3 6 -5 1 -5 -13z"/>
<path d="M7715 830 c3 -5 11 -10 16 -10 6 0 7 5 4 10 -3 6 -11 10 -16 10 -6 0
-7 -4 -4 -10z"/>
<path d="M8105 810 c-3 -5 1 -10 10 -10 9 0 13 5 10 10 -3 6 -8 10 -10 10 -2
0 -7 -4 -10 -10z"/>
<path d="M72 790 c-10 -17 -10 -20 3 -20 8 0 15 9 15 20 0 11 -1 20 -3 20 -1
0 -8 -9 -15 -20z"/>
<path d="M7890 780 c0 -5 7 -10 15 -10 8 0 15 5 15 10 0 6 -7 10 -15 10 -8 0
-15 -4 -15 -10z"/>
<path d="M8022 743 c15 -15 31 -23 35 -19 4 4 -3 16 -17 26 -37 29 -49 24 -18
-7z"/>
<path d="M30 724 c0 -8 5 -12 10 -9 6 4 8 11 5 16 -9 14 -15 11 -15 -7z"/>
<path d="M366 721 c-3 -5 1 -11 9 -15 9 -3 15 0 15 9 0 16 -16 20 -24 6z"/>
<path d="M23 693 c-16 -3 -23 -11 -23 -26 0 -15 3 -18 8 -9 11 17 53 24 68 11
17 -14 54 -2 54 17 0 12 -4 13 -21 3 -15 -8 -24 -8 -32 0 -11 11 -15 12 -54 4z"/>
<path d="M220 681 c0 -6 5 -13 10 -16 6 -3 10 1 10 9 0 9 -4 16 -10 16 -5 0
-10 -4 -10 -9z"/>
<path d="M263 658 c-25 -32 -25 -38 0 -29 14 6 28 7 32 3 4 -4 6 2 4 12 -5 24
-23 31 -36 14z"/>
<path d="M346 655 c-11 -8 -15 -15 -9 -15 6 0 16 7 23 15 16 19 11 19 -14 0z"/>
<path d="M7803 638 c2 -7 10 -12 16 -10 6 1 11 -2 11 -8 0 -5 5 -10 12 -10 6
0 3 9 -7 20 -20 22 -39 27 -32 8z"/>
<path d="M7980 640 c0 -5 5 -10 10 -10 6 0 10 5 10 10 0 6 -4 10 -10 10 -5 0
-10 -4 -10 -10z"/>
<path d="M8100 640 c0 -5 5 -10 10 -10 6 0 10 5 10 10 0 6 -4 10 -10 10 -5 0
-10 -4 -10 -10z"/>
<path d="M110 583 c0 -13 5 -23 10 -23 13 0 13 11 0 30 -8 12 -10 11 -10 -7z"/>
<path d="M325 550 c3 -5 8 -10 11 -10 2 0 4 5 4 10 0 6 -5 10 -11 10 -5 0 -7
-4 -4 -10z"/>
<path d="M230 490 c0 -5 5 -10 11 -10 5 0 7 5 4 10 -3 6 -8 10 -11 10 -2 0 -4
-4 -4 -10z"/>
<path d="M8125 490 c-3 -5 -1 -10 4 -10 6 0 11 5 11 10 0 6 -2 10 -4 10 -3 0
-8 -4 -11 -10z"/>
<path d="M164 459 c-3 -6 -1 -16 5 -22 8 -8 11 -5 11 11 0 24 -5 28 -16 11z"/>
<path d="M90 440 c-13 -8 -12 -10 3 -10 9 0 17 5 17 10 0 12 -1 12 -20 0z"/>
<path d="M7825 410 c3 -5 8 -10 11 -10 2 0 4 5 4 10 0 6 -5 10 -11 10 -5 0 -7
-4 -4 -10z"/>
<path d="M1271 245 c1 -19 18 -51 18 -35 0 8 -4 22 -9 30 -5 8 -9 11 -9 5z"/>
<path d="M1387 243 c-3 -3 -3 -11 0 -19 3 -8 0 -14 -6 -14 -6 0 -11 -8 -11
-17 1 -17 1 -17 11 0 6 9 15 14 21 11 7 -4 8 -2 4 4 -4 7 -3 12 3 12 5 0 11
-6 14 -12 2 -7 7 -10 11 -7 3 3 -5 15 -18 26 -13 12 -27 19 -29 16z"/>
<path d="M1510 240 c-8 -5 -23 -7 -32 -4 -22 7 -24 -12 -3 -20 20 -7 42 2 49
20 6 16 6 17 -14 4z"/>
<path d="M750 230 c0 -5 5 -10 11 -10 5 0 7 5 4 10 -3 6 -8 10 -11 10 -2 0 -4
-4 -4 -10z"/>
<path d="M818 223 c7 -3 16 -2 19 1 4 3 -2 6 -13 5 -11 0 -14 -3 -6 -6z"/>
<path d="M942 218 c7 -19 38 -22 38 -4 0 10 -9 16 -21 16 -12 0 -19 -5 -17
-12z"/>
<path d="M6950 221 c0 -5 9 -15 20 -21 11 -6 20 -7 20 -3 0 4 5 2 12 -5 16
-16 28 -15 28 2 0 7 -10 16 -22 19 -13 2 -31 8 -40 12 -11 4 -18 3 -18 -4z"/>
<path d="M1607 199 c7 -7 15 -10 18 -7 3 3 -2 9 -12 12 -14 6 -15 5 -6 -5z"/>
<path d="M1680 199 c0 -5 5 -7 10 -4 6 3 10 8 10 11 0 2 -4 4 -10 4 -5 0 -10
-5 -10 -11z"/>
<path d="M180 196 c0 -2 7 -6 15 -10 8 -3 15 -1 15 4 0 6 -7 10 -15 10 -8 0
-15 -2 -15 -4z"/>
<path d="M1143 170 c-1 -11 4 -20 12 -20 8 0 11 7 8 20 -3 11 -8 20 -12 20 -4
0 -7 -9 -8 -20z"/>
<path d="M760 166 c0 -2 7 -9 15 -16 12 -10 15 -10 15 4 0 9 -7 16 -15 16 -8
0 -15 -2 -15 -4z"/>
<path d="M944 158 c-4 -6 -2 -14 4 -16 7 -2 10 -8 6 -13 -6 -10 39 -13 49 -3
13 13 -6 34 -25 28 -14 -4 -18 -2 -14 5 4 6 3 11 -3 11 -5 0 -13 -5 -17 -12z"/>
<path d="M1028 148 c9 -9 15 -9 24 0 9 9 7 12 -12 12 -19 0 -21 -3 -12 -12z"/>
<path d="M260 131 c0 -6 4 -13 10 -16 6 -3 7 1 4 9 -7 18 -14 21 -14 7z"/>
<path d="M1720 120 c0 -6 7 -10 15 -10 8 0 15 2 15 4 0 2 -7 6 -15 10 -8 3
-15 1 -15 -4z"/>
<path d="M1660 80 c8 -5 20 -10 25 -10 6 0 3 5 -5 10 -8 5 -19 10 -25 10 -5 0
-3 -5 5 -10z"/>
<path d="M980 60 c-13 -8 -12 -10 3 -10 9 0 17 5 17 10 0 12 -1 12 -20 0z"/>
<path d="M1580 60 c0 -5 5 -10 10 -10 6 0 10 5 10 10 0 6 -4 10 -10 10 -5 0
-10 -4 -10 -10z"/>
</g>
</svg>
